<?xml version="1.0" encoding="UTF-8" standalone="no"?><svg xmlns="http://www.w3.org/2000/svg" xmlns:xlink="http://www.w3.org/1999/xlink" contentScriptType="application/ecmascript" contentStyleType="text/css" height="1045px" preserveAspectRatio="none" style="width:707px;height:1045px;" version="1.1" viewBox="0 0 707 1045" width="707px" zoomAndPan="magnify"><defs><filter height="300%" id="f14outsu5zc9s5" width="300%" x="-1" y="-1"><feGaussianBlur result="blurOut" stdDeviation="2.0"/><feColorMatrix in="blurOut" result="blurOut2" type="matrix" values="0 0 0 0 0 0 0 0 0 0 0 0 0 0 0 0 0 0 .4 0"/><feOffset dx="4.0" dy="4.0" in="blurOut2" result="blurOut3"/><feBlend in="SourceGraphic" in2="blurOut3" mode="normal"/></filter></defs><g><rect fill="#DDDDDD" height="1030.6563" style="stroke: #383838; stroke-width: 1.0;" width="321.5" x="84.5" y="4"/><text fill="#000000" font-family="sans-serif" font-size="13" font-weight="bold" lengthAdjust="spacingAndGlyphs" textLength="42" x="224.25" y="17.4951">Master</text><rect fill="#DDDDDD" height="1030.6563" style="stroke: #383838; stroke-width: 1.0;" width="231.5" x="428" y="4"/><text fill="#000000" font-family="sans-serif" font-size="13" font-weight="bold" lengthAdjust="spacingAndGlyphs" textLength="52" x="517.75" y="17.4951">Workers</text><rect fill="#FFFFFF" filter="url(#f14outsu5zc9s5)" height="237.4609" style="stroke: #383838; stroke-width: 1.0;" width="10" x="113" y="93.3125"/><rect fill="#FFFFFF" filter="url(#f14outsu5zc9s5)" height="200.5" style="stroke: #383838; stroke-width: 1.0;" width="10" x="113" y="344.7734"/><rect fill="#FFFFFF" filter="url(#f14outsu5zc9s5)" height="30.3516" style="stroke: #383838; stroke-width: 1.0;" width="10" x="113" y="805.9922"/><rect fill="#FFFFFF" filter="url(#f14outsu5zc9s5)" height="112.7031" style="stroke: #383838; stroke-width: 1.0;" width="10" x="113" y="864.3438"/><rect fill="#FFFFFF" filter="url(#f14outsu5zc9s5)" height="14" style="stroke: #383838; stroke-width: 1.0;" width="10" x="297" y="167.0156"/><rect fill="#FFFFFF" filter="url(#f14outsu5zc9s5)" height="14" style="stroke: #383838; stroke-width: 1.0;" width="10" x="297" y="949.0469"/><rect fill="#FFFFFF" filter="url(#f14outsu5zc9s5)" height="14" style="stroke: #383838; stroke-width: 1.0;" width="10" x="382.5" y="330.7734"/><rect fill="#FFFFFF" filter="url(#f14outsu5zc9s5)" height="172.0156" style="stroke: #383838; stroke-width: 1.0;" width="10" x="463.5" y="545.2734"/><rect fill="#FFFFFF" filter="url(#f14outsu5zc9s5)" height="74.7031" style="stroke: #383838; stroke-width: 1.0;" width="10" x="463.5" y="731.2891"/><rect fill="#FFFFFF" filter="url(#f14outsu5zc9s5)" height="28" style="stroke: #383838; stroke-width: 1.0;" width="10" x="463.5" y="836.3438"/><rect fill="#FFFFFF" filter="url(#f14outsu5zc9s5)" height="14" style="stroke: #383838; stroke-width: 1.0;" width="10" x="570" y="672.9375"/><rect fill="#FFFFFF" filter="url(#f14outsu5zc9s5)" height="14" style="stroke: #383838; stroke-width: 1.0;" width="10" x="570" y="761.6406"/><rect fill="#FFFFFF" filter="url(#f14outsu5zc9s5)" height="14" style="stroke: #383838; stroke-width: 1.0;" width="10" x="636" y="717.2891"/><rect fill="#F8F8F8" filter="url(#f14outsu5zc9s5)" height="31.6094" style="stroke: #383838; stroke-width: 1.5;" width="69" x="432" y="476.3125"/><text fill="#000000" font-family="sans-serif" font-size="14" lengthAdjust="spacingAndGlyphs" textLength="55" x="439" y="497.8457">A worker</text><rect fill="#F8F8F8" filter="url(#f14outsu5zc9s5)" height="31.6094" style="stroke: #383838; stroke-width: 1.5;" width="79" x="533.5" y="553.2734"/><text fill="#000000" font-family="sans-serif" font-size="14" lengthAdjust="spacingAndGlyphs" textLength="65" x="540.5" y="574.8066">CLIEngine</text><line style="stroke: #383838; stroke-width: 1.0; stroke-dasharray: 5.0,5.0;" x1="117.5" x2="117.5" y1="60.9609" y2="995.0469"/><line style="stroke: #383838; stroke-width: 1.0; stroke-dasharray: 5.0,5.0;" x1="302" x2="302" y1="60.9609" y2="995.0469"/><line style="stroke: #383838; stroke-width: 1.0; stroke-dasharray: 5.0,5.0;" x1="387" x2="387" y1="60.9609" y2="995.0469"/><line style="stroke: #383838; stroke-width: 1.0; stroke-dasharray: 5.0,5.0;" x1="468" x2="468" y1="509.6172" y2="995.0469"/><line style="stroke: #383838; stroke-width: 1.0; stroke-dasharray: 5.0,5.0;" x1="574.5" x2="574.5" y1="586.5781" y2="995.0469"/><line style="stroke: #383838; stroke-width: 1.0; stroke-dasharray: 5.0,5.0;" x1="640.5" x2="640.5" y1="60.9609" y2="995.0469"/><rect fill="#F8F8F8" filter="url(#f14outsu5zc9s5)" height="31.6094" style="stroke: #383838; stroke-width: 1.5;" width="55" x="88.5" y="24.3516"/><text fill="#000000" font-family="sans-serif" font-size="14" lengthAdjust="spacingAndGlyphs" textLength="41" x="95.5" y="45.8848">ESLint</text><rect fill="#F8F8F8" filter="url(#f14outsu5zc9s5)" height="31.6094" style="stroke: #383838; stroke-width: 1.5;" width="55" x="88.5" y="994.0469"/><text fill="#000000" font-family="sans-serif" font-size="14" lengthAdjust="spacingAndGlyphs" textLength="41" x="95.5" y="1015.5801">ESLint</text><rect fill="#F8F8F8" filter="url(#f14outsu5zc9s5)" height="31.6094" style="stroke: #383838; stroke-width: 1.5;" width="118" x="241" y="24.3516"/><text fill="#000000" font-family="sans-serif" font-size="14" lengthAdjust="spacingAndGlyphs" textLength="104" x="248" y="45.8848">LintResultCache</text><rect fill="#F8F8F8" filter="url(#f14outsu5zc9s5)" height="31.6094" style="stroke: #383838; stroke-width: 1.5;" width="118" x="241" y="994.0469"/><text fill="#000000" font-family="sans-serif" font-size="14" lengthAdjust="spacingAndGlyphs" textLength="104" x="248" y="1015.5801">LintResultCache</text><rect fill="#F8F8F8" filter="url(#f14outsu5zc9s5)" height="31.6094" style="stroke: #383838; stroke-width: 1.5;" width="25" x="373" y="24.3516"/><text fill="#000000" font-family="sans-serif" font-size="14" lengthAdjust="spacingAndGlyphs" textLength="11" x="380" y="45.8848">fs</text><rect fill="#F8F8F8" filter="url(#f14outsu5zc9s5)" height="31.6094" style="stroke: #383838; stroke-width: 1.5;" width="25" x="373" y="994.0469"/><text fill="#000000" font-family="sans-serif" font-size="14" lengthAdjust="spacingAndGlyphs" textLength="11" x="380" y="1015.5801">fs</text><rect fill="#F8F8F8" filter="url(#f14outsu5zc9s5)" height="31.6094" style="stroke: #383838; stroke-width: 1.5;" width="69" x="432" y="994.0469"/><text fill="#000000" font-family="sans-serif" font-size="14" lengthAdjust="spacingAndGlyphs" textLength="55" x="439" y="1015.5801">A worker</text><rect fill="#F8F8F8" filter="url(#f14outsu5zc9s5)" height="31.6094" style="stroke: #383838; stroke-width: 1.5;" width="79" x="533.5" y="994.0469"/><text fill="#000000" font-family="sans-serif" font-size="14" lengthAdjust="spacingAndGlyphs" textLength="65" x="540.5" y="1015.5801">CLIEngine</text><rect fill="#F8F8F8" filter="url(#f14outsu5zc9s5)" height="31.6094" style="stroke: #383838; stroke-width: 1.5;" width="25" x="626.5" y="24.3516"/><text fill="#000000" font-family="sans-serif" font-size="14" lengthAdjust="spacingAndGlyphs" textLength="11" x="633.5" y="45.8848">fs</text><rect fill="#F8F8F8" filter="url(#f14outsu5zc9s5)" height="31.6094" style="stroke: #383838; stroke-width: 1.5;" width="25" x="626.5" y="994.0469"/><text fill="#000000" font-family="sans-serif" font-size="14" lengthAdjust="spacingAndGlyphs" textLength="11" x="633.5" y="1015.5801">fs</text><rect fill="#FFFFFF" filter="url(#f14outsu5zc9s5)" height="237.4609" style="stroke: #383838; stroke-width: 1.0;" width="10" x="113" y="93.3125"/><rect fill="#FFFFFF" filter="url(#f14outsu5zc9s5)" height="200.5" style="stroke: #383838; stroke-width: 1.0;" width="10" x="113" y="344.7734"/><rect fill="#FFFFFF" filter="url(#f14outsu5zc9s5)" height="30.3516" style="stroke: #383838; stroke-width: 1.0;" width="10" x="113" y="805.9922"/><rect fill="#FFFFFF" filter="url(#f14outsu5zc9s5)" height="112.7031" style="stroke: #383838; stroke-width: 1.0;" width="10" x="113" y="864.3438"/><rect fill="#FFFFFF" filter="url(#f14outsu5zc9s5)" height="14" style="stroke: #383838; stroke-width: 1.0;" width="10" x="297" y="167.0156"/><rect fill="#FFFFFF" filter="url(#f14outsu5zc9s5)" height="14" style="stroke: #383838; stroke-width: 1.0;" width="10" x="297" y="949.0469"/><rect fill="#FFFFFF" filter="url(#f14outsu5zc9s5)" height="14" style="stroke: #383838; stroke-width: 1.0;" width="10" x="382.5" y="330.7734"/><rect fill="#FFFFFF" filter="url(#f14outsu5zc9s5)" height="172.0156" style="stroke: #383838; stroke-width: 1.0;" width="10" x="463.5" y="545.2734"/><rect fill="#FFFFFF" filter="url(#f14outsu5zc9s5)" height="74.7031" style="stroke: #383838; stroke-width: 1.0;" width="10" x="463.5" y="731.2891"/><rect fill="#FFFFFF" filter="url(#f14outsu5zc9s5)" height="28" style="stroke: #383838; stroke-width: 1.0;" width="10" x="463.5" y="836.3438"/><rect fill="#FFFFFF" filter="url(#f14outsu5zc9s5)" height="14" style="stroke: #383838; stroke-width: 1.0;" width="10" x="570" y="672.9375"/><rect fill="#FFFFFF" filter="url(#f14outsu5zc9s5)" height="14" style="stroke: #383838; stroke-width: 1.0;" width="10" x="570" y="761.6406"/><rect fill="#FFFFFF" filter="url(#f14outsu5zc9s5)" height="14" style="stroke: #383838; stroke-width: 1.0;" width="10" x="636" y="717.2891"/><polygon fill="#383838" points="101,89.3125,111,93.3125,101,97.3125,105,93.3125" style="stroke: #383838; stroke-width: 1.0;"/><line style="stroke: #383838; stroke-width: 1.0;" x1="3" x2="107" y1="93.3125" y2="93.3125"/><text fill="#000000" font-family="sans-serif" font-size="13" lengthAdjust="spacingAndGlyphs" textLength="91" x="10" y="88.4561">executeOnFiles</text><line style="stroke: #383838; stroke-width: 1.0;" x1="123" x2="165" y1="123.6641" y2="123.6641"/><line style="stroke: #383838; stroke-width: 1.0;" x1="165" x2="165" y1="123.6641" y2="136.6641"/><line style="stroke: #383838; stroke-width: 1.0;" x1="124" x2="165" y1="136.6641" y2="136.6641"/><polygon fill="#383838" points="134,132.6641,124,136.6641,134,140.6641,130,136.6641" style="stroke: #383838; stroke-width: 1.0;"/><text fill="#000000" font-family="sans-serif" font-size="13" lengthAdjust="spacingAndGlyphs" textLength="88" x="130" y="118.8076">enumerate files</text><polygon fill="#383838" points="285,163.0156,295,167.0156,285,171.0156,289,167.0156" style="stroke: #383838; stroke-width: 1.0;"/><line style="stroke: #383838; stroke-width: 1.0;" x1="123" x2="291" y1="167.0156" y2="167.0156"/><text fill="#000000" font-family="sans-serif" font-size="13" lengthAdjust="spacingAndGlyphs" textLength="155" x="130" y="162.1592">check files if cached or not</text><polygon fill="#383838" points="134,177.0156,124,181.0156,134,185.0156,130,181.0156" style="stroke: #383838; stroke-width: 1.0;"/><line style="stroke: #383838; stroke-width: 1.0; stroke-dasharray: 2.0,2.0;" x1="128" x2="301" y1="181.0156" y2="181.0156"/><line style="stroke: #383838; stroke-width: 1.0;" x1="123" x2="165" y1="211.3672" y2="211.3672"/><line style="stroke: #383838; stroke-width: 1.0;" x1="165" x2="165" y1="211.3672" y2="224.3672"/><line style="stroke: #383838; stroke-width: 1.0;" x1="124" x2="165" y1="224.3672" y2="224.3672"/><polygon fill="#383838" points="134,220.3672,124,224.3672,134,228.3672,130,224.3672" style="stroke: #383838; stroke-width: 1.0;"/><text fill="#000000" font-family="sans-serif" font-size="13" lengthAdjust="spacingAndGlyphs" textLength="138" x="130" y="206.5107">extract non-cached files</text><path d="M29,239.3672 L90,239.3672 L90,247.3672 L80,257.3672 L29,257.3672 L29,239.3672 " fill="#EEEEEE" style="stroke: #000000; stroke-width: 1.0;"/><rect fill="none" height="680.3281" style="stroke: #000000; stroke-width: 2.0;" width="666.5" x="29" y="239.3672"/><text fill="#000000" font-family="sans-serif" font-size="13" font-weight="bold" lengthAdjust="spacingAndGlyphs" textLength="16" x="44" y="253.8623">alt</text><text fill="#000000" font-family="sans-serif" font-size="11" font-weight="bold" lengthAdjust="spacingAndGlyphs" textLength="95" x="105" y="252.7861">[concurrency = 1]</text><path d="M68.5,264.7188 L215.5,264.7188 L215.5,272.7188 L205.5,282.7188 L68.5,282.7188 L68.5,264.7188 " fill="#EEEEEE" style="stroke: #000000; stroke-width: 1.0;"/><rect fill="none" height="138.4063" style="stroke: #000000; stroke-width: 2.0;" width="353.5" x="68.5" y="264.7188"/><text fill="#000000" font-family="sans-serif" font-size="13" font-weight="bold" lengthAdjust="spacingAndGlyphs" textLength="102" x="83.5" y="279.2139">in 16 concurrent</text><path d="M78.5,290.0703 L151.5,290.0703 L151.5,298.0703 L141.5,308.0703 L78.5,308.0703 L78.5,290.0703 " fill="#EEEEEE" style="stroke: #000000; stroke-width: 1.0;"/><rect fill="none" height="106.0547" style="stroke: #000000; stroke-width: 2.0;" width="333.5" x="78.5" y="290.0703"/><text fill="#000000" font-family="sans-serif" font-size="13" font-weight="bold" lengthAdjust="spacingAndGlyphs" textLength="28" x="93.5" y="304.5654">loop</text><text fill="#000000" font-family="sans-serif" font-size="11" font-weight="bold" lengthAdjust="spacingAndGlyphs" textLength="73" x="166.5" y="303.4893">[for each file]</text><polygon fill="#383838" points="370.5,326.7734,380.5,330.7734,370.5,334.7734,374.5,330.7734" style="stroke: #383838; stroke-width: 1.0;"/><line style="stroke: #383838; stroke-width: 1.0;" x1="118" x2="376.5" y1="330.7734" y2="330.7734"/><text fill="#000000" font-family="sans-serif" font-size="13" lengthAdjust="spacingAndGlyphs" textLength="92" x="125" y="325.917">read file content</text><polygon fill="#383838" points="134,340.7734,124,344.7734,134,348.7734,130,344.7734" style="stroke: #383838; stroke-width: 1.0;"/><line style="stroke: #383838; stroke-width: 1.0;" x1="128" x2="386.5" y1="344.7734" y2="344.7734"/><line style="stroke: #383838; stroke-width: 1.0;" x1="123" x2="165" y1="375.125" y2="375.125"/><line style="stroke: #383838; stroke-width: 1.0;" x1="165" x2="165" y1="375.125" y2="388.125"/><line style="stroke: #383838; stroke-width: 1.0;" x1="124" x2="165" y1="388.125" y2="388.125"/><polygon fill="#383838" points="134,384.125,124,388.125,134,392.125,130,388.125" style="stroke: #383838; stroke-width: 1.0;"/><text fill="#000000" font-family="sans-serif" font-size="13" lengthAdjust="spacingAndGlyphs" textLength="56" x="130" y="370.2686">verify files</text><line style="stroke: #000000; stroke-width: 1.0; stroke-dasharray: 2.0,2.0;" x1="29" x2="695.5" y1="436.125" y2="436.125"/><text fill="#000000" font-family="sans-serif" font-size="11" font-weight="bold" lengthAdjust="spacingAndGlyphs" textLength="101" x="34" y="447.5439">[concurrency &gt;= 2]</text><path d="M58.5,457.9609 L131.5,457.9609 L131.5,465.9609 L121.5,475.9609 L58.5,475.9609 L58.5,457.9609 " fill="#EEEEEE" style="stroke: #000000; stroke-width: 1.0;"/><rect fill="none" height="414.3828" style="stroke: #000000; stroke-width: 2.0;" width="627" x="58.5" y="457.9609"/><text fill="#000000" font-family="sans-serif" font-size="13" font-weight="bold" lengthAdjust="spacingAndGlyphs" textLength="28" x="73.5" y="472.4561">loop</text><text fill="#000000" font-family="sans-serif" font-size="11" font-weight="bold" lengthAdjust="spacingAndGlyphs" textLength="118" x="146.5" y="471.3799">['concurrency' times]</text><line style="stroke: #383838; stroke-width: 1.0;" x1="430" x2="420" y1="498.6641" y2="494.6641"/><line style="stroke: #383838; stroke-width: 1.0;" x1="430" x2="420" y1="498.6641" y2="502.6641"/><line style="stroke: #383838; stroke-width: 1.0;" x1="123" x2="431" y1="498.6641" y2="498.6641"/><text fill="#000000" font-family="sans-serif" font-size="13" lengthAdjust="spacingAndGlyphs" textLength="78" x="130" y="493.8076">create worker</text><rect fill="#F8F8F8" filter="url(#f14outsu5zc9s5)" height="31.6094" style="stroke: #383838; stroke-width: 1.5;" width="69" x="432" y="476.3125"/><text fill="#000000" font-family="sans-serif" font-size="14" lengthAdjust="spacingAndGlyphs" textLength="55" x="439" y="497.8457">A worker</text><line style="stroke: #383838; stroke-width: 1.0;" x1="461.5" x2="451.5" y1="545.2734" y2="541.2734"/><line style="stroke: #383838; stroke-width: 1.0;" x1="461.5" x2="451.5" y1="545.2734" y2="549.2734"/><line style="stroke: #383838; stroke-width: 1.0;" x1="118" x2="462.5" y1="545.2734" y2="545.2734"/><text fill="#000000" font-family="sans-serif" font-size="13" lengthAdjust="spacingAndGlyphs" textLength="160" x="125" y="540.417">send options and initial files</text><polygon fill="#383838" points="521.5,571.625,531.5,575.625,521.5,579.625,525.5,575.625" style="stroke: #383838; stroke-width: 1.0;"/><line style="stroke: #383838; stroke-width: 1.0;" x1="473.5" x2="527.5" y1="575.625" y2="575.625"/><text fill="#000000" font-family="sans-serif" font-size="13" lengthAdjust="spacingAndGlyphs" textLength="36" x="480.5" y="570.7686">create</text><rect fill="#F8F8F8" filter="url(#f14outsu5zc9s5)" height="31.6094" style="stroke: #383838; stroke-width: 1.5;" width="79" x="533.5" y="553.2734"/><text fill="#000000" font-family="sans-serif" font-size="14" lengthAdjust="spacingAndGlyphs" textLength="65" x="540.5" y="574.8066">CLIEngine</text><path d="M68.5,606.8828 L215.5,606.8828 L215.5,614.8828 L205.5,624.8828 L68.5,624.8828 L68.5,606.8828 " fill="#EEEEEE" style="stroke: #000000; stroke-width: 1.0;"/><rect fill="none" height="244.4609" style="stroke: #000000; stroke-width: 2.0;" width="607" x="68.5" y="606.8828"/><text fill="#000000" font-family="sans-serif" font-size="13" font-weight="bold" lengthAdjust="spacingAndGlyphs" textLength="102" x="83.5" y="621.3779">in 16 concurrent</text><path d="M78.5,632.2344 L151.5,632.2344 L151.5,640.2344 L141.5,650.2344 L78.5,650.2344 L78.5,632.2344 " fill="#EEEEEE" style="stroke: #000000; stroke-width: 1.0;"/><rect fill="none" height="212.1094" style="stroke: #000000; stroke-width: 2.0;" width="587" x="78.5" y="632.2344"/><text fill="#000000" font-family="sans-serif" font-size="13" font-weight="bold" lengthAdjust="spacingAndGlyphs" textLength="28" x="93.5" y="646.7295">loop</text><text fill="#000000" font-family="sans-serif" font-size="11" font-weight="bold" lengthAdjust="spacingAndGlyphs" textLength="102" x="166.5" y="645.6533">[until no more file]</text><polygon fill="#383838" points="558,668.9375,568,672.9375,558,676.9375,562,672.9375" style="stroke: #383838; stroke-width: 1.0;"/><line style="stroke: #383838; stroke-width: 1.0;" x1="473.5" x2="564" y1="672.9375" y2="672.9375"/><text fill="#000000" font-family="sans-serif" font-size="13" lengthAdjust="spacingAndGlyphs" textLength="63" x="480.5" y="668.0811">read config</text><polygon fill="#383838" points="484.5,682.9375,474.5,686.9375,484.5,690.9375,480.5,686.9375" style="stroke: #383838; stroke-width: 1.0;"/><line style="stroke: #383838; stroke-width: 1.0; stroke-dasharray: 2.0,2.0;" x1="478.5" x2="574" y1="686.9375" y2="686.9375"/><line style="stroke: #383838; stroke-width: 1.0;" x1="634" x2="624" y1="717.2891" y2="713.2891"/><line style="stroke: #383838; stroke-width: 1.0;" x1="634" x2="624" y1="717.2891" y2="721.2891"/><line style="stroke: #383838; stroke-width: 1.0;" x1="468.5" x2="635" y1="717.2891" y2="717.2891"/><text fill="#000000" font-family="sans-serif" font-size="13" lengthAdjust="spacingAndGlyphs" textLength="92" x="475.5" y="712.4326">read file content</text><line style="stroke: #383838; stroke-width: 1.0;" x1="473.5" x2="483.5" y1="731.2891" y2="727.2891"/><line style="stroke: #383838; stroke-width: 1.0;" x1="473.5" x2="483.5" y1="731.2891" y2="735.2891"/><line style="stroke: #383838; stroke-width: 1.0;" x1="473.5" x2="640" y1="731.2891" y2="731.2891"/><polygon fill="#383838" points="558,757.6406,568,761.6406,558,765.6406,562,761.6406" style="stroke: #383838; stroke-width: 1.0;"/><line style="stroke: #383838; stroke-width: 1.0;" x1="473.5" x2="564" y1="761.6406" y2="761.6406"/><text fill="#000000" font-family="sans-serif" font-size="13" lengthAdjust="spacingAndGlyphs" textLength="49" x="480.5" y="756.7842">verify file</text><polygon fill="#383838" points="484.5,771.6406,474.5,775.6406,484.5,779.6406,480.5,775.6406" style="stroke: #383838; stroke-width: 1.0;"/><line style="stroke: #383838; stroke-width: 1.0; stroke-dasharray: 2.0,2.0;" x1="478.5" x2="574" y1="775.6406" y2="775.6406"/><line style="stroke: #383838; stroke-width: 1.0;" x1="123" x2="133" y1="805.9922" y2="801.9922"/><line style="stroke: #383838; stroke-width: 1.0;" x1="123" x2="133" y1="805.9922" y2="809.9922"/><line style="stroke: #383838; stroke-width: 1.0;" x1="123" x2="467.5" y1="805.9922" y2="805.9922"/><text fill="#000000" font-family="sans-serif" font-size="13" lengthAdjust="spacingAndGlyphs" textLength="90" x="140" y="801.1357">report lint result</text><line style="stroke: #383838; stroke-width: 1.0;" x1="461.5" x2="451.5" y1="836.3438" y2="832.3438"/><line style="stroke: #383838; stroke-width: 1.0;" x1="461.5" x2="451.5" y1="836.3438" y2="840.3438"/><line style="stroke: #383838; stroke-width: 1.0;" x1="118" x2="462.5" y1="836.3438" y2="836.3438"/><text fill="#000000" font-family="sans-serif" font-size="13" lengthAdjust="spacingAndGlyphs" textLength="119" x="125" y="831.4873">send next file if exist</text><line style="stroke: #383838; stroke-width: 1.0;" x1="123" x2="133" y1="864.3438" y2="860.3438"/><line style="stroke: #383838; stroke-width: 1.0;" x1="123" x2="133" y1="864.3438" y2="868.3438"/><line style="stroke: #383838; stroke-width: 1.0; stroke-dasharray: 2.0,2.0;" x1="123" x2="467.5" y1="864.3438" y2="864.3438"/><line style="stroke: #383838; stroke-width: 2.0;" x1="459.5" x2="477.5" y1="855.3438" y2="873.3438"/><line style="stroke: #383838; stroke-width: 2.0;" x1="459.5" x2="477.5" y1="873.3438" y2="855.3438"/><path d="M39,884.3438 L39,910.3438 L192,910.3438 L192,894.3438 L182,884.3438 L39,884.3438 " fill="#ECECEC" filter="url(#f14outsu5zc9s5)" style="stroke: #383838; stroke-width: 1.0;"/><path d="M182,884.3438 L182,894.3438 L192,894.3438 L182,884.3438 " fill="#ECECEC" style="stroke: #383838; stroke-width: 1.0;"/><text fill="#000000" font-family="sans-serif" font-size="13" lengthAdjust="spacingAndGlyphs" textLength="132" x="45" y="902.8389">wait for all workers exit</text><polygon fill="#383838" points="285,945.0469,295,949.0469,285,953.0469,289,949.0469" style="stroke: #383838; stroke-width: 1.0;"/><line style="stroke: #383838; stroke-width: 1.0;" x1="123" x2="291" y1="949.0469" y2="949.0469"/><text fill="#000000" font-family="sans-serif" font-size="13" lengthAdjust="spacingAndGlyphs" textLength="78" x="130" y="944.1904">update cache</text><polygon fill="#383838" points="134,959.0469,124,963.0469,134,967.0469,130,963.0469" style="stroke: #383838; stroke-width: 1.0;"/><line style="stroke: #383838; stroke-width: 1.0; stroke-dasharray: 2.0,2.0;" x1="128" x2="301" y1="963.0469" y2="963.0469"/><polygon fill="#383838" points="14,973.0469,4,977.0469,14,981.0469,10,977.0469" style="stroke: #383838; stroke-width: 1.0;"/><line style="stroke: #383838; stroke-width: 1.0; stroke-dasharray: 2.0,2.0;" x1="8" x2="117" y1="977.0469" y2="977.0469"/><!--
@startuml overview
skinparam monochrome true
skinparam backgroundColor #ffffff
skinparam sequenceGroupBodyBackGroundColor transparent
skinparam boxPadding 10

box "Master"
    participant "ESLint" as engine1
    participant "LintResultCache" as cache
    participant "fs" as fs1
end box

box "Workers"
    participant "A worker" as worker
    participant "CLIEngine" as engine2
    participant "fs" as fs2
end box

[-> engine1 : executeOnFiles
activate engine1

engine1 -> engine1 : enumerate files

engine1 -> cache : check files if cached or not
activate cache
cache - -> engine1
deactivate cache
  
engine1 -> engine1 : extract non-cached files
  
alt concurrency = 1
    group in 16 concurrent
        loop for each file
            engine1 -> fs1 : read file content
            deactivate engine1
            activate fs1
            fs1 -> engine1
            deactivate fs1
            activate engine1
            engine1 -> engine1 : verify files
        end
    end
    |||
else concurrency >= 2
    loop 'concurrency' times
        create worker
        engine1 ->> worker : create worker
        engine1 ->> worker : send options and initial files
        deactivate engine1
        activate worker
        create engine2
        worker -> engine2 : create
        group in 16 concurrent
            loop until no more file
                worker -> engine2 : read config
                activate engine2
                engine2 - -> worker
                deactivate engine2
                worker ->> fs2 : read file content
                deactivate worker
                activate fs2
                fs2 ->> worker
                deactivate fs2
                activate worker
                worker -> engine2 : verify file
                activate engine2
                engine2 - -> worker
                deactivate engine2
                worker ->> engine1 : report lint result
                deactivate worker
                activate engine1
                engine1 ->> worker : send next file if exist
                deactivate engine1
                activate worker
            end
        end
        worker - ->> engine1
        destroy worker
        activate engine1
    end
    note over engine1: wait for all workers exit
end

engine1 -> cache : update cache
activate cache
cache - -> engine1
deactivate cache

[<- - engine1
deactivate engine1
@enduml

PlantUML version 1.2019.09(Tue Aug 27 01:19:51 JST 2019)
(GPL source distribution)
Java Runtime: OpenJDK Runtime Environment
JVM: OpenJDK 64-Bit Server VM
Java Version: 13+33
Operating System: Windows 10
OS Version: 10.0
Default Encoding: MS932
Language: ja
Country: JP
--></g></svg>