<?xml version="1.0" encoding="UTF-8" standalone="no"?><svg xmlns="http://www.w3.org/2000/svg" xmlns:xlink="http://www.w3.org/1999/xlink" contentScriptType="application/ecmascript" contentStyleType="text/css" height="496px" preserveAspectRatio="none" style="width:250px;height:496px;" version="1.1" viewBox="0 0 250 496" width="250px" zoomAndPan="magnify"><defs><filter height="300%" id="fewnw911qg69x" width="300%" x="-1" y="-1"><feGaussianBlur result="blurOut" stdDeviation="2.0"/><feColorMatrix in="blurOut" result="blurOut2" type="matrix" values="0 0 0 0 0 0 0 0 0 0 0 0 0 0 0 0 0 0 .4 0"/><feOffset dx="4.0" dy="4.0" in="blurOut2" result="blurOut3"/><feBlend in="SourceGraphic" in2="blurOut3" mode="normal"/></filter></defs><g><rect fill="#FEFECE" filter="url(#fewnw911qg69x)" height="33.9688" style="stroke: #A80036; stroke-width: 1.5;" width="74" x="89.5" y="8"/><text fill="#000000" font-family="sans-serif" font-size="12" lengthAdjust="spacingAndGlyphs" textLength="60" x="96.5" y="21.1387">CLIEngine</text><line style="stroke: #A80036; stroke-width: 1.5;" x1="90.5" x2="162.5" y1="25.9688" y2="25.9688"/><rect fill="#FEFECE" filter="url(#fewnw911qg69x)" height="33.9688" style="stroke: #A80036; stroke-width: 1.5;" width="49" x="46" y="119"/><text fill="#000000" font-family="sans-serif" font-size="12" lengthAdjust="spacingAndGlyphs" textLength="35" x="53" y="132.1387">Linter</text><line style="stroke: #A80036; stroke-width: 1.5;" x1="47" x2="94" y1="136.9688" y2="136.9688"/><rect fill="#FEFECE" filter="url(#fewnw911qg69x)" height="33.9688" style="stroke: #A80036; stroke-width: 1.5;" width="41" x="6" y="452"/><text fill="#000000" font-family="sans-serif" font-size="12" lengthAdjust="spacingAndGlyphs" textLength="27" x="13" y="465.1387">Rule</text><line style="stroke: #A80036; stroke-width: 1.5;" x1="7" x2="46" y1="469.9688" y2="469.9688"/><rect fill="#FEFECE" filter="url(#fewnw911qg69x)" height="33.9688" style="stroke: #A80036; stroke-width: 1.5;" width="92" x="82.5" y="452"/><text fill="#000000" font-family="sans-serif" font-size="12" lengthAdjust="spacingAndGlyphs" textLength="78" x="89.5" y="465.1387">Environment</text><line style="stroke: #A80036; stroke-width: 1.5;" x1="83.5" x2="173.5" y1="469.9688" y2="469.9688"/><rect fill="#FEFECE" filter="url(#fewnw911qg69x)" height="33.9688" style="stroke: #A80036; stroke-width: 1.5;" width="52" x="51.5" y="341"/><text fill="#000000" font-family="sans-serif" font-size="12" lengthAdjust="spacingAndGlyphs" textLength="38" x="58.5" y="354.1387">Plugin</text><line style="stroke: #A80036; stroke-width: 1.5;" x1="52.5" x2="102.5" y1="358.9688" y2="358.9688"/><rect fill="#FEFECE" filter="url(#fewnw911qg69x)" height="33.9688" style="stroke: #A80036; stroke-width: 1.5;" width="55" x="161" y="341"/><text fill="#000000" font-family="sans-serif" font-size="12" lengthAdjust="spacingAndGlyphs" textLength="41" x="168" y="354.1387">Parser</text><line style="stroke: #A80036; stroke-width: 1.5;" x1="162" x2="215" y1="358.9688" y2="358.9688"/><rect fill="#FEFECE" filter="url(#fewnw911qg69x)" height="33.9688" style="stroke: #A80036; stroke-width: 1.5;" width="85" x="90" y="230"/><text fill="#000000" font-family="sans-serif" font-size="12" lengthAdjust="spacingAndGlyphs" textLength="71" x="97" y="243.1387">ConfigArray</text><line style="stroke: #A80036; stroke-width: 1.5;" x1="91" x2="174" y1="247.9688" y2="247.9688"/><rect fill="#FEFECE" filter="url(#fewnw911qg69x)" height="33.9688" style="stroke: #A80036; stroke-width: 1.5;" width="109" x="130" y="119"/><text fill="#000000" font-family="sans-serif" font-size="12" lengthAdjust="spacingAndGlyphs" textLength="95" x="137" y="132.1387">FileEnumerator</text><line style="stroke: #A80036; stroke-width: 1.5;" x1="131" x2="238" y1="136.9688" y2="136.9688"/><!--link CLIEngine to Linter--><path d="M112.177,53.88 C103.8327,70.12 93.3412,90.541 84.9721,106.831 " fill="none" id="CLIEngine-Linter" style="stroke: #A80036; stroke-width: 1.0;"/><polygon fill="#A80036" points="78.7969,118.851,86.4679,112.674,81.082,114.4037,79.3522,109.0178,78.7969,118.851" style="stroke: #A80036; stroke-width: 1.0;"/><line style="stroke: #A80036; stroke-width: 1.0;" x1="81.082" x2="84.7377" y1="114.4037" y2="107.2875"/><polygon fill="#A80036" points="118.237,42.083,111.937,45.5916,112.7526,52.7564,119.0526,49.2478,118.237,42.083" style="stroke: #A80036; stroke-width: 1.0;"/><text fill="#000000" font-family="sans-serif" font-size="13" lengthAdjust="spacingAndGlyphs" textLength="23" x="103.5" y="85.0669">use</text><!--link CLIEngine to FileEnumerator--><path d="M141.18,53.589 C149.922,70.017 160.98,90.799 169.736,107.255 " fill="none" id="CLIEngine-FileEnumerator" style="stroke: #A80036; stroke-width: 1.0;"/><polygon fill="#A80036" points="175.907,118.851,175.2105,109.0268,173.5583,114.437,168.1481,112.7848,175.907,118.851" style="stroke: #A80036; stroke-width: 1.0;"/><line style="stroke: #A80036; stroke-width: 1.0;" x1="173.5583" x2="169.8" y1="114.437" y2="107.3745"/><polygon fill="#A80036" points="135.058,42.083,134.3453,49.2588,140.695,52.6766,141.4077,45.5008,135.058,42.083" style="stroke: #A80036; stroke-width: 1.0;"/><text fill="#000000" font-family="sans-serif" font-size="13" lengthAdjust="spacingAndGlyphs" textLength="23" x="160.5" y="85.0669">use</text><!--link Linter to ConfigArray--><path d="M79.6483,153.083 C90.5462,172.243 108.775,204.29 120.718,225.287 " fill="none" id="Linter-ConfigArray" style="stroke: #A80036; stroke-width: 1.0; stroke-dasharray: 7.0,7.0;"/><polygon fill="#A80036" points="123.314,229.851,122.3394,220.0505,120.8412,225.5053,115.3863,224.007,123.314,229.851" style="stroke: #A80036; stroke-width: 1.0;"/><text fill="#000000" font-family="sans-serif" font-size="13" lengthAdjust="spacingAndGlyphs" textLength="23" x="106.5" y="196.0669">use</text><!--link FileEnumerator to ConfigArray--><path d="M176.827,153.083 C167.687,172.243 152.399,204.29 142.382,225.287 " fill="none" id="FileEnumerator-ConfigArray" style="stroke: #A80036; stroke-width: 1.0; stroke-dasharray: 7.0,7.0;"/><polygon fill="#A80036" points="140.204,229.851,147.6893,223.4502,142.3568,225.3382,140.4689,220.0057,140.204,229.851" style="stroke: #A80036; stroke-width: 1.0;"/><text fill="#000000" font-family="sans-serif" font-size="13" lengthAdjust="spacingAndGlyphs" textLength="27" x="163.5" y="196.0669">load</text><!--link ConfigArray to Parser--><path d="M146.823,275.88 C155.167,292.12 165.659,312.541 174.028,328.831 " fill="none" id="ConfigArray-Parser" style="stroke: #A80036; stroke-width: 1.0;"/><polygon fill="#A80036" points="180.203,340.851,179.6475,331.0178,177.9178,336.4038,172.5319,334.6741,180.203,340.851" style="stroke: #A80036; stroke-width: 1.0;"/><line style="stroke: #A80036; stroke-width: 1.0;" x1="177.9178" x2="174.262" y1="336.4038" y2="329.2875"/><polygon fill="#A80036" points="140.763,264.083,139.9474,271.2478,146.2474,274.7564,147.063,267.5916,140.763,264.083" style="stroke: #A80036; stroke-width: 1.0;"/><text fill="#000000" font-family="sans-serif" font-size="13" lengthAdjust="spacingAndGlyphs" textLength="69" x="165.5" y="307.0669">load &amp; has</text><!--link ConfigArray to Plugin--><path d="M91.8905,272.246 C84.856,278.407 78.5199,285.681 74.5,294 C69.5088,304.329 69.1052,316.755 70.3703,327.832 " fill="none" id="ConfigArray-Plugin" style="stroke: #A80036; stroke-width: 1.0;"/><polygon fill="#A80036" points="72.6455,340.881,75.0402,331.3277,71.7867,335.9553,67.1591,332.7018,72.6455,340.881" style="stroke: #A80036; stroke-width: 1.0;"/><line style="stroke: #A80036; stroke-width: 1.0;" x1="71.7867" x2="70.4126" y1="335.9553" y2="328.0745"/><polygon fill="#A80036" points="102.5079,264.026,95.3149,264.5366,93.0196,271.3726,100.2127,270.8621,102.5079,264.026" style="stroke: #A80036; stroke-width: 1.0;"/><text fill="#000000" font-family="sans-serif" font-size="13" lengthAdjust="spacingAndGlyphs" textLength="69" x="75.5" y="307.0669">load &amp; has</text><!--link Plugin to Rule--><path d="M64.4554,386.8796 C56.8566,403.1202 47.3018,423.5412 39.68,439.8311 " fill="none" id="Plugin-Rule" style="stroke: #A80036; stroke-width: 1.0;"/><polygon fill="#A80036" points="34.0561,451.8507,41.4933,445.3941,36.1751,447.3219,34.2473,442.0037,34.0561,451.8507" style="stroke: #A80036; stroke-width: 1.0;"/><line style="stroke: #A80036; stroke-width: 1.0;" x1="36.1751" x2="39.5655" y1="447.3219" y2="440.0758"/><polygon fill="#A80036" points="69.9748,375.083,63.809,378.8224,64.8893,385.9521,71.0551,382.2127,69.9748,375.083" style="stroke: #A80036; stroke-width: 1.0;"/><text fill="#000000" font-family="sans-serif" font-size="13" lengthAdjust="spacingAndGlyphs" textLength="23" x="56.5" y="418.0669">has</text><!--link Plugin to Environment--><path d="M90.5446,386.8796 C98.1434,403.1202 107.698,423.5412 115.32,439.8311 " fill="none" id="Plugin-Environment" style="stroke: #A80036; stroke-width: 1.0;"/><polygon fill="#A80036" points="120.944,451.8507,120.7531,442.0037,118.8251,447.3219,113.507,445.3939,120.944,451.8507" style="stroke: #A80036; stroke-width: 1.0;"/><line style="stroke: #A80036; stroke-width: 1.0;" x1="118.8251" x2="115.4345" y1="447.3219" y2="440.0758"/><polygon fill="#A80036" points="85.0252,375.083,83.9449,382.2127,90.1107,385.9521,91.191,378.8224,85.0252,375.083" style="stroke: #A80036; stroke-width: 1.0;"/><text fill="#000000" font-family="sans-serif" font-size="13" lengthAdjust="spacingAndGlyphs" textLength="23" x="107.5" y="418.0669">has</text><!--
@startuml
object CLIEngine
object Linter
object Rule
object Environment
object Plugin
object Parser
object ConfigArray
object FileEnumerator

CLIEngine *- -> Linter : "use"
CLIEngine *- -> FileEnumerator : "use"
Linter ..> ConfigArray : "use"
FileEnumerator ..> ConfigArray : "load"
ConfigArray *- -> Parser : "load & has"
ConfigArray *- -> Plugin : "load & has"
Plugin *- -> Rule : "has"
Plugin *- -> Environment : "has"
@enduml

PlantUML version 1.2019.01(Sat Feb 09 15:32:04 UTC 2019)
(GPL source distribution)
Java Runtime: Java(TM) SE Runtime Environment
JVM: Java HotSpot(TM) 64-Bit Server VM
Java Version: 1.7.0_25-b15
Operating System: Linux
Default Encoding: UTF-8
Language: en
Country: US
--></g></svg>