<?xml version="1.0" encoding="UTF-8" standalone="no"?><svg xmlns="http://www.w3.org/2000/svg" xmlns:xlink="http://www.w3.org/1999/xlink" contentScriptType="application/ecmascript" contentStyleType="text/css" height="628px" preserveAspectRatio="none" style="width:652px;height:628px;" version="1.1" viewBox="0 0 652 628" width="652px" zoomAndPan="magnify"><defs><filter height="300%" id="ft63xag30t9tk" width="300%" x="-1" y="-1"><feGaussianBlur result="blurOut" stdDeviation="2.0"/><feColorMatrix in="blurOut" result="blurOut2" type="matrix" values="0 0 0 0 0 0 0 0 0 0 0 0 0 0 0 0 0 0 .4 0"/><feOffset dx="4.0" dy="4.0" in="blurOut2" result="blurOut3"/><feBlend in="SourceGraphic" in2="blurOut3" mode="normal"/></filter></defs><g><!--cluster depending on fs--><rect fill="#FFFFFF" filter="url(#ft63xag30t9tk)" height="291" style="stroke: #000000; stroke-width: 1.5;" width="145" x="163.5" y="24"/><text fill="#000000" font-family="sans-serif" font-size="14" font-weight="bold" lengthAdjust="spacingAndGlyphs" textLength="129" x="171.5" y="38.9951">depending on fs</text><rect fill="#FEFECE" filter="url(#ft63xag30t9tk)" height="33.9688" style="stroke: #A80036; stroke-width: 1.5;" width="74" x="218.5" y="59"/><text fill="#000000" font-family="sans-serif" font-size="12" lengthAdjust="spacingAndGlyphs" textLength="60" x="225.5" y="72.1387">CLIEngine</text><line style="stroke: #A80036; stroke-width: 1.5;" x1="219.5" x2="291.5" y1="76.9688" y2="76.9688"/><rect fill="#FEFECE" filter="url(#ft63xag30t9tk)" height="33.9688" style="stroke: #A80036; stroke-width: 1.5;" width="53" x="237" y="154"/><text fill="#000000" font-family="sans-serif" font-size="12" lengthAdjust="spacingAndGlyphs" textLength="39" x="244" y="167.1387">Config</text><line style="stroke: #A80036; stroke-width: 1.5;" x1="238" x2="289" y1="171.9688" y2="171.9688"/><rect fill="#FEFECE" filter="url(#ft63xag30t9tk)" height="33.9688" style="stroke: #A80036; stroke-width: 1.5;" width="59" x="230" y="265"/><text fill="#000000" font-family="sans-serif" font-size="12" lengthAdjust="spacingAndGlyphs" textLength="45" x="237" y="278.1387">Plugins</text><line style="stroke: #A80036; stroke-width: 1.5;" x1="231" x2="288" y1="282.9688" y2="282.9688"/><rect fill="#FEFECE" filter="url(#ft63xag30t9tk)" height="33.9688" style="stroke: #A80036; stroke-width: 1.5;" width="49" x="427" y="378"/><text fill="#000000" font-family="sans-serif" font-size="12" lengthAdjust="spacingAndGlyphs" textLength="35" x="434" y="391.1387">Linter</text><line style="stroke: #A80036; stroke-width: 1.5;" x1="428" x2="475" y1="395.9688" y2="395.9688"/><rect fill="#FEFECE" filter="url(#ft63xag30t9tk)" height="33.9688" style="stroke: #A80036; stroke-width: 1.5;" width="92" x="324.5" y="265"/><text fill="#000000" font-family="sans-serif" font-size="12" lengthAdjust="spacingAndGlyphs" textLength="78" x="331.5" y="278.1387">ConfigCache</text><line style="stroke: #A80036; stroke-width: 1.5;" x1="325.5" x2="415.5" y1="282.9688" y2="282.9688"/><rect fill="#FEFECE" filter="url(#ft63xag30t9tk)" height="33.9688" style="stroke: #A80036; stroke-width: 1.5;" width="83" x="520" y="489"/><text fill="#000000" font-family="sans-serif" font-size="12" lengthAdjust="spacingAndGlyphs" textLength="69" x="527" y="502.1387">ConfigData</text><line style="stroke: #A80036; stroke-width: 1.5;" x1="521" x2="602" y1="506.9688" y2="506.9688"/><rect fill="#FEFECE" filter="url(#ft63xag30t9tk)" height="33.9688" style="stroke: #A80036; stroke-width: 1.5;" width="99" x="6" y="489"/><text fill="#000000" font-family="sans-serif" font-size="12" lengthAdjust="spacingAndGlyphs" textLength="85" x="13" y="502.1387">Environments</text><line style="stroke: #A80036; stroke-width: 1.5;" x1="7" x2="104" y1="506.9688" y2="506.9688"/><rect fill="#FEFECE" filter="url(#ft63xag30t9tk)" height="33.9688" style="stroke: #A80036; stroke-width: 1.5;" width="48" x="239.5" y="489"/><text fill="#000000" font-family="sans-serif" font-size="12" lengthAdjust="spacingAndGlyphs" textLength="34" x="246.5" y="502.1387">Rules</text><line style="stroke: #A80036; stroke-width: 1.5;" x1="240.5" x2="286.5" y1="506.9688" y2="506.9688"/><rect fill="#FEFECE" filter="url(#ft63xag30t9tk)" height="33.9688" style="stroke: #A80036; stroke-width: 1.5;" width="55" x="424" y="489"/><text fill="#000000" font-family="sans-serif" font-size="12" lengthAdjust="spacingAndGlyphs" textLength="41" x="431" y="502.1387">Parser</text><line style="stroke: #A80036; stroke-width: 1.5;" x1="425" x2="478" y1="506.9688" y2="506.9688"/><rect fill="#FEFECE" filter="url(#ft63xag30t9tk)" height="33.9688" style="stroke: #A80036; stroke-width: 1.5;" width="52" x="145.5" y="489"/><text fill="#000000" font-family="sans-serif" font-size="12" lengthAdjust="spacingAndGlyphs" textLength="38" x="152.5" y="502.1387">Plugin</text><line style="stroke: #A80036; stroke-width: 1.5;" x1="146.5" x2="196.5" y1="506.9688" y2="506.9688"/><rect fill="#FEFECE" filter="url(#ft63xag30t9tk)" height="33.9688" style="stroke: #A80036; stroke-width: 1.5;" width="92" x="66.5" y="584"/><text fill="#000000" font-family="sans-serif" font-size="12" lengthAdjust="spacingAndGlyphs" textLength="78" x="73.5" y="597.1387">Environment</text><line style="stroke: #A80036; stroke-width: 1.5;" x1="67.5" x2="157.5" y1="601.9688" y2="601.9688"/><rect fill="#FEFECE" filter="url(#ft63xag30t9tk)" height="33.9688" style="stroke: #A80036; stroke-width: 1.5;" width="41" x="212" y="584"/><text fill="#000000" font-family="sans-serif" font-size="12" lengthAdjust="spacingAndGlyphs" textLength="27" x="219" y="597.1387">Rule</text><line style="stroke: #A80036; stroke-width: 1.5;" x1="213" x2="252" y1="601.9688" y2="601.9688"/><!--link CLIEngine to Linter--><path d="M305.54,81.977 C381.692,92.459 525.13,124.211 594.5,218 C628.981,264.618 640.14,301.5 605.5,348 C578.894,383.715 525.601,392.777 489.241,394.537 " fill="none" id="CLIEngine-Linter" style="stroke: #A80036; stroke-width: 1.0;"/><polygon fill="#A80036" points="476.226,394.894,485.3325,398.6452,481.2241,394.7566,485.1127,390.6483,476.226,394.894" style="stroke: #A80036; stroke-width: 1.0;"/><line style="stroke: #A80036; stroke-width: 1.0;" x1="481.2241" x2="489.221" y1="394.7566" y2="394.5375"/><polygon fill="#A80036" points="292.581,80.311,298.0217,85.0438,304.4829,81.8419,299.0423,77.1091,292.581,80.311" style="stroke: #A80036; stroke-width: 1.0;"/><!--link CLIEngine to Config--><path d="M258.041,106.542 C258.981,117.47 260.046,129.847 260.984,140.749 " fill="none" id="CLIEngine-Config" style="stroke: #A80036; stroke-width: 1.0;"/><polygon fill="#A80036" points="262.122,153.986,265.3358,144.6762,261.6934,149.0044,257.3653,145.362,262.122,153.986" style="stroke: #A80036; stroke-width: 1.0;"/><line style="stroke: #A80036; stroke-width: 1.0;" x1="261.6934" x2="261.008" y1="149.0044" y2="141.034"/><polygon fill="#A80036" points="256.893,93.199,253.422,99.5198,257.9215,105.1548,261.3925,98.8341,256.893,93.199" style="stroke: #A80036; stroke-width: 1.0;"/><!--link Config to Linter--><path d="M290.119,177.07 C330.341,186.373 404.939,210.462 433.5,265 C451.596,299.555 453.478,346.114 452.78,372.809 " fill="none" id="Config-Linter" style="stroke: #A80036; stroke-width: 1.0;"/><polygon fill="#A80036" points="452.61,377.874,456.9112,369.014,452.7786,372.8768,448.9157,368.7443,452.61,377.874" style="stroke: #A80036; stroke-width: 1.0;"/><!--link Config to ConfigCache--><path d="M288.61,197.579 C305.685,214.973 328.191,237.901 345.288,255.317 " fill="none" id="Config-ConfigCache" style="stroke: #A80036; stroke-width: 1.0;"/><polygon fill="#A80036" points="354.647,264.851,351.1966,255.6263,351.1443,261.2829,345.4877,261.2306,354.647,264.851" style="stroke: #A80036; stroke-width: 1.0;"/><line style="stroke: #A80036; stroke-width: 1.0;" x1="351.1443" x2="345.54" y1="261.2829" y2="255.5735"/><polygon fill="#A80036" points="279.288,188.083,280.6368,195.1668,287.6945,196.6464,286.3457,189.5625,279.288,188.083" style="stroke: #A80036; stroke-width: 1.0;"/><text fill="#000000" font-family="sans-serif" font-size="13" lengthAdjust="spacingAndGlyphs" textLength="49" x="324.5" y="231.0669">register</text><!--link Config to Plugins--><path d="M262.423,201.347 C261.85,216.963 261.147,236.109 260.575,251.716 " fill="none" id="Config-Plugins" style="stroke: #A80036; stroke-width: 1.0;"/><polygon fill="#A80036" points="260.093,264.851,264.4197,256.0034,260.276,259.8543,256.4251,255.7106,260.093,264.851" style="stroke: #A80036; stroke-width: 1.0;"/><line style="stroke: #A80036; stroke-width: 1.0;" x1="260.276" x2="260.5695" y1="259.8543" y2="251.8595"/><polygon fill="#A80036" points="262.91,188.083,258.6931,193.9326,262.4709,200.075,266.6878,194.2254,262.91,188.083" style="stroke: #A80036; stroke-width: 1.0;"/><text fill="#000000" font-family="sans-serif" font-size="13" lengthAdjust="spacingAndGlyphs" textLength="23" x="263.5" y="231.0669">use</text><!--link Config to ConfigData--><path d="M290.186,174.873 C324.084,179.519 383.355,191.053 426.5,218 C522.868,278.188 551.593,427.809 559.11,483.588 " fill="none" id="Config-ConfigData" style="stroke: #A80036; stroke-width: 1.0; stroke-dasharray: 7.0,7.0;"/><polygon fill="#A80036" points="559.773,488.687,562.58,479.2466,559.1287,483.7287,554.6467,480.2774,559.773,488.687" style="stroke: #A80036; stroke-width: 1.0;"/><text fill="#000000" font-family="sans-serif" font-size="13" lengthAdjust="spacingAndGlyphs" textLength="27" x="524.5" y="344.0669">load</text><!--link Config to Environments--><path d="M249.749,188.249 C216.232,228.606 129.49,337.696 80.5,442 C74.008,455.822 67.6736,471.82 63.0052,484.236 " fill="none" id="Config-Environments" style="stroke: #A80036; stroke-width: 1.0; stroke-dasharray: 7.0,7.0;"/><polygon fill="#A80036" points="61.2377,488.977,68.1302,481.9419,62.9847,484.2921,60.6345,479.1466,61.2377,488.977" style="stroke: #A80036; stroke-width: 1.0;"/><text fill="#000000" font-family="sans-serif" font-size="13" lengthAdjust="spacingAndGlyphs" textLength="23" x="144.5" y="344.0669">use</text><!--link Plugins to Environments--><path d="M238.889,299.032 C216.296,317.068 179.535,347.805 151.5,378 C118.968,413.04 86.5655,458.716 68.9731,484.654 " fill="none" id="Plugins-Environments" style="stroke: #A80036; stroke-width: 1.0;"/><polygon fill="#A80036" points="66.0714,488.951,74.4221,483.7293,68.8688,484.8068,67.7913,479.2535,66.0714,488.951" style="stroke: #A80036; stroke-width: 1.0;"/><text fill="#000000" font-family="sans-serif" font-size="13" lengthAdjust="spacingAndGlyphs" textLength="49" x="152.5" y="399.5669">register</text><!--link Plugins to Linter--><path d="M276.53,299.297 C285.114,307.029 295.926,316.069 306.5,323 C344.328,347.796 392.08,369.542 422.214,382.232 " fill="none" id="Plugins-Linter" style="stroke: #A80036; stroke-width: 1.0;"/><polygon fill="#A80036" points="426.895,384.19,420.1363,377.0262,422.2825,382.2601,417.0485,384.4063,426.895,384.19" style="stroke: #A80036; stroke-width: 1.0;"/><!--link Plugins to Rules--><path d="M259.794,299.324 C260.507,338.871 262.325,439.789 263.119,483.866 " fill="none" id="Plugins-Rules" style="stroke: #A80036; stroke-width: 1.0; stroke-dasharray: 7.0,7.0;"/><polygon fill="#A80036" points="263.211,488.951,267.0483,479.8804,263.121,483.9518,259.0496,480.0245,263.211,488.951" style="stroke: #A80036; stroke-width: 1.0;"/><text fill="#000000" font-family="sans-serif" font-size="13" lengthAdjust="spacingAndGlyphs" textLength="49" x="263.5" y="399.5669">register</text><!--link Plugins to Plugin--><path d="M248.153,311.625 C231.214,354.358 199.51,434.339 182.673,476.815 " fill="none" id="Plugins-Plugin" style="stroke: #A80036; stroke-width: 1.0;"/><polygon fill="#A80036" points="177.862,488.951,184.8974,482.0587,179.7047,484.303,177.4605,479.1103,177.862,488.951" style="stroke: #A80036; stroke-width: 1.0;"/><line style="stroke: #A80036; stroke-width: 1.0;" x1="179.7047" x2="182.652" y1="484.303" y2="476.866"/><polygon fill="#A80036" points="253.029,299.324,247.0995,303.4278,248.6071,310.4796,254.5366,306.3757,253.029,299.324" style="stroke: #A80036; stroke-width: 1.0;"/><text fill="#000000" font-family="sans-serif" font-size="13" lengthAdjust="spacingAndGlyphs" textLength="27" x="222.5" y="399.5669">load</text><!--link Linter to Parser--><path d="M449.125,425.36 C448.526,435.959 448.142,448.015 448.5,459 C448.677,464.424 448.97,470.202 449.306,475.767 " fill="none" id="Linter-Parser" style="stroke: #A80036; stroke-width: 1.0;"/><polygon fill="#A80036" points="450.187,488.833,453.5727,479.5844,449.8508,483.8443,445.5908,480.1224,450.187,488.833" style="stroke: #A80036; stroke-width: 1.0;"/><line style="stroke: #A80036; stroke-width: 1.0;" x1="449.8508" x2="449.313" y1="483.8443" y2="475.863"/><polygon fill="#A80036" points="450.026,412.049,445.6296,417.7649,449.215,424.0216,453.6114,418.3056,450.026,412.049" style="stroke: #A80036; stroke-width: 1.0;"/><text fill="#000000" font-family="sans-serif" font-size="13" lengthAdjust="spacingAndGlyphs" textLength="27" x="449.5" y="455.0669">load</text><!--link Linter to Rules--><path d="M415.539,418.314 C395.615,430.542 370.327,445.844 347.5,459 C331.856,468.016 314.37,477.66 299.418,485.777 " fill="none" id="Linter-Rules" style="stroke: #A80036; stroke-width: 1.0;"/><polygon fill="#A80036" points="287.552,492.189,297.3715,491.4297,291.9509,489.8121,293.5685,484.3914,287.552,492.189" style="stroke: #A80036; stroke-width: 1.0;"/><line style="stroke: #A80036; stroke-width: 1.0;" x1="291.9509" x2="298.989" y1="489.8121" y2="486.009"/><polygon fill="#A80036" points="426.885,411.326,419.6786,411.0666,416.6675,417.619,423.8739,417.8783,426.885,411.326" style="stroke: #A80036; stroke-width: 1.0;"/><text fill="#000000" font-family="sans-serif" font-size="13" lengthAdjust="spacingAndGlyphs" textLength="23" x="377.5" y="455.0669">use</text><!--link Linter to Environments--><path d="M413.96,406.333 C345.804,425.093 201.085,464.927 117.879,487.83 " fill="none" id="Linter-Environments" style="stroke: #A80036; stroke-width: 1.0;"/><polygon fill="#A80036" points="105.3215,491.286,115.0604,492.7539,110.1422,489.959,112.9371,485.0408,105.3215,491.286" style="stroke: #A80036; stroke-width: 1.0;"/><line style="stroke: #A80036; stroke-width: 1.0;" x1="110.1422" x2="117.8555" y1="489.959" y2="487.8365"/><polygon fill="#A80036" points="426.728,402.818,419.8816,400.5539,415.1584,406.0029,422.0048,408.267,426.728,402.818" style="stroke: #A80036; stroke-width: 1.0;"/><text fill="#000000" font-family="sans-serif" font-size="13" lengthAdjust="spacingAndGlyphs" textLength="23" x="278.5" y="455.0669">use</text><!--link Linter to ConfigData--><path d="M467.731,412.083 C487.31,431.484 520.224,464.099 541.393,485.075 " fill="none" id="Linter-ConfigData" style="stroke: #A80036; stroke-width: 1.0; stroke-dasharray: 7.0,7.0;"/><polygon fill="#A80036" points="545.203,488.851,541.6266,479.6744,541.6518,485.3312,535.995,485.3564,545.203,488.851" style="stroke: #A80036; stroke-width: 1.0;"/><text fill="#000000" font-family="sans-serif" font-size="13" lengthAdjust="spacingAndGlyphs" textLength="23" x="514.5" y="455.0669">use</text><!--link Environments to Environment--><path d="M65.4286,523.1994 C74.9915,538.802 89.4954,562.4662 99.8746,579.4006 " fill="none" id="Environments-Environment" style="stroke: #A80036; stroke-width: 1.0;"/><polygon fill="#A80036" points="102.6851,583.9863,101.3924,574.2227,100.0723,579.7233,94.5716,578.4032,102.6851,583.9863" style="stroke: #A80036; stroke-width: 1.0;"/><!--link Rules to Rule--><path d="M258.1,523.1994 C252.944,538.6686 245.146,562.0622 239.512,578.965 " fill="none" id="Rules-Rule" style="stroke: #A80036; stroke-width: 1.0;"/><polygon fill="#A80036" points="237.838,583.9863,244.4792,576.7135,239.4194,579.243,236.8899,574.1832,237.838,583.9863" style="stroke: #A80036; stroke-width: 1.0;"/><!--link Plugin to Rule--><path d="M189.315,534.1609 C197.355,546.4178 206.825,560.856 214.845,573.0836 " fill="none" id="Plugin-Rule" style="stroke: #A80036; stroke-width: 1.0;"/><polygon fill="#A80036" points="221.996,583.9863,220.4043,574.2669,219.2536,579.8055,213.715,578.6547,221.996,583.9863" style="stroke: #A80036; stroke-width: 1.0;"/><line style="stroke: #A80036; stroke-width: 1.0;" x1="219.2536" x2="214.8665" y1="579.8055" y2="573.116"/><polygon fill="#A80036" points="182.125,523.1994,182.0712,530.4103,188.7067,533.2334,188.7605,526.0225,182.125,523.1994" style="stroke: #A80036; stroke-width: 1.0;"/><!--link Plugin to Environment--><path d="M153.969,534.6331 C146.314,546.6999 137.364,560.8079 129.742,572.8226 " fill="none" id="Plugin-Environment" style="stroke: #A80036; stroke-width: 1.0;"/><polygon fill="#A80036" points="122.659,583.9863,130.858,578.5295,125.3375,579.7643,124.1028,574.2438,122.659,583.9863" style="stroke: #A80036; stroke-width: 1.0;"/><line style="stroke: #A80036; stroke-width: 1.0;" x1="125.3375" x2="129.623" y1="579.7643" y2="573.009"/><polygon fill="#A80036" points="161.223,523.1994,154.6311,526.123,154.7945,533.3322,161.3864,530.4087,161.223,523.1994" style="stroke: #A80036; stroke-width: 1.0;"/></g></svg>