<?xml version="1.0" encoding="UTF-8" standalone="no"?><svg xmlns="http://www.w3.org/2000/svg" xmlns:xlink="http://www.w3.org/1999/xlink" contentScriptType="application/ecmascript" contentStyleType="text/css" height="596px" preserveAspectRatio="none" style="width:330px;height:596px;" version="1.1" viewBox="0 0 330 596" width="330px" zoomAndPan="magnify"><defs><filter height="300%" id="fpeg3p77dh7s5" width="300%" x="-1" y="-1"><feGaussianBlur result="blurOut" stdDeviation="2.0"/><feColorMatrix in="blurOut" result="blurOut2" type="matrix" values="0 0 0 0 0 0 0 0 0 0 0 0 0 0 0 0 0 0 .4 0"/><feOffset dx="4.0" dy="4.0" in="blurOut2" result="blurOut3"/><feBlend in="SourceGraphic" in2="blurOut3" mode="normal"/></filter></defs><g><!--cluster depending on fs--><rect fill="#FFFFFF" filter="url(#fpeg3p77dh7s5)" height="275" style="stroke: #000000; stroke-width: 1.5;" width="164" x="75.5" y="24"/><text fill="#000000" font-family="sans-serif" font-size="14" font-weight="bold" lengthAdjust="spacingAndGlyphs" textLength="129" x="93" y="38.9951">depending on fs</text><rect fill="#FEFECE" filter="url(#fpeg3p77dh7s5)" height="33.9688" style="stroke: #A80036; stroke-width: 1.5;" width="74" x="100.5" y="59"/><text fill="#000000" font-family="sans-serif" font-size="12" lengthAdjust="spacingAndGlyphs" textLength="60" x="107.5" y="72.1387">CLIEngine</text><line style="stroke: #A80036; stroke-width: 1.5;" x1="101.5" x2="173.5" y1="76.9688" y2="76.9688"/><rect fill="#FEFECE" filter="url(#fpeg3p77dh7s5)" height="33.9688" style="stroke: #A80036; stroke-width: 1.5;" width="109" x="95" y="154"/><text fill="#000000" font-family="sans-serif" font-size="12" lengthAdjust="spacingAndGlyphs" textLength="95" x="102" y="167.1387">FileEnumerator</text><line style="stroke: #A80036; stroke-width: 1.5;" x1="96" x2="203" y1="171.9688" y2="171.9688"/><rect fill="#FEFECE" filter="url(#fpeg3p77dh7s5)" height="33.9688" style="stroke: #A80036; stroke-width: 1.5;" width="131" x="92" y="249"/><text fill="#000000" font-family="sans-serif" font-size="12" lengthAdjust="spacingAndGlyphs" textLength="117" x="99" y="262.1387">ConfigArrayFactory</text><line style="stroke: #A80036; stroke-width: 1.5;" x1="93" x2="222" y1="266.9688" y2="266.9688"/><rect fill="#FEFECE" filter="url(#fpeg3p77dh7s5)" height="33.9688" style="stroke: #A80036; stroke-width: 1.5;" width="49" x="6" y="154"/><text fill="#000000" font-family="sans-serif" font-size="12" lengthAdjust="spacingAndGlyphs" textLength="35" x="13" y="167.1387">Linter</text><line style="stroke: #A80036; stroke-width: 1.5;" x1="7" x2="54" y1="171.9688" y2="171.9688"/><rect fill="#FEFECE" filter="url(#fpeg3p77dh7s5)" height="33.9688" style="stroke: #A80036; stroke-width: 1.5;" width="85" x="130" y="362"/><text fill="#000000" font-family="sans-serif" font-size="12" lengthAdjust="spacingAndGlyphs" textLength="71" x="137" y="375.1387">ConfigArray</text><line style="stroke: #A80036; stroke-width: 1.5;" x1="131" x2="214" y1="379.9688" y2="379.9688"/><rect fill="#FEFECE" filter="url(#fpeg3p77dh7s5)" height="33.9688" style="stroke: #A80036; stroke-width: 1.5;" width="55" x="72" y="457"/><text fill="#000000" font-family="sans-serif" font-size="12" lengthAdjust="spacingAndGlyphs" textLength="41" x="79" y="470.1387">Parser</text><line style="stroke: #A80036; stroke-width: 1.5;" x1="73" x2="126" y1="474.9688" y2="474.9688"/><rect fill="#FEFECE" filter="url(#fpeg3p77dh7s5)" height="33.9688" style="stroke: #A80036; stroke-width: 1.5;" width="52" x="196.5" y="457"/><text fill="#000000" font-family="sans-serif" font-size="12" lengthAdjust="spacingAndGlyphs" textLength="38" x="203.5" y="470.1387">Plugin</text><line style="stroke: #A80036; stroke-width: 1.5;" x1="197.5" x2="247.5" y1="474.9688" y2="474.9688"/><rect fill="#FEFECE" filter="url(#fpeg3p77dh7s5)" height="33.9688" style="stroke: #A80036; stroke-width: 1.5;" width="41" x="151" y="552"/><text fill="#000000" font-family="sans-serif" font-size="12" lengthAdjust="spacingAndGlyphs" textLength="27" x="158" y="565.1387">Rule</text><line style="stroke: #A80036; stroke-width: 1.5;" x1="152" x2="191" y1="569.9688" y2="569.9688"/><rect fill="#FEFECE" filter="url(#fpeg3p77dh7s5)" height="33.9688" style="stroke: #A80036; stroke-width: 1.5;" width="92" x="227.5" y="552"/><text fill="#000000" font-family="sans-serif" font-size="12" lengthAdjust="spacingAndGlyphs" textLength="78" x="234.5" y="565.1387">Environment</text><line style="stroke: #A80036; stroke-width: 1.5;" x1="228.5" x2="318.5" y1="569.9688" y2="569.9688"/><!--link CLIEngine to Linter--><path d="M108.928,101.834 C93.4593,115.278 74.4095,131.836 58.9583,145.265 " fill="none" id="CLIEngine-Linter" style="stroke: #A80036; stroke-width: 1.0;"/><polygon fill="#A80036" points="48.9244,153.986,58.3412,151.1007,52.6981,150.7059,53.093,145.0628,48.9244,153.986" style="stroke: #A80036; stroke-width: 1.0;"/><line style="stroke: #A80036; stroke-width: 1.0;" x1="52.6981" x2="58.7363" y1="150.7059" y2="145.458"/><polygon fill="#A80036" points="118.862,93.199,111.7094,94.1158,109.8047,101.0709,116.9573,100.154,118.862,93.199" style="stroke: #A80036; stroke-width: 1.0;"/><!--link CLIEngine to FileEnumerator--><path d="M141.312,106.542 C142.722,117.47 144.319,129.847 145.726,140.749 " fill="none" id="CLIEngine-FileEnumerator" style="stroke: #A80036; stroke-width: 1.0;"/><polygon fill="#A80036" points="147.434,153.986,150.25,144.5483,146.7945,149.0271,142.3157,145.5715,147.434,153.986" style="stroke: #A80036; stroke-width: 1.0;"/><line style="stroke: #A80036; stroke-width: 1.0;" x1="146.7945" x2="145.77" y1="149.0271" y2="141.093"/><polygon fill="#A80036" points="139.59,93.199,136.391,99.6617,141.1261,105.1003,144.3251,98.6376,139.59,93.199" style="stroke: #A80036; stroke-width: 1.0;"/><!--link Linter to ConfigArray--><path d="M32.6104,188.002 C36.8096,214.848 48.2692,269.679 75.5,307 C91.4629,328.878 116.167,346.819 136.649,359.194 " fill="none" id="Linter-ConfigArray" style="stroke: #A80036; stroke-width: 1.0; stroke-dasharray: 7.0,7.0;"/><polygon fill="#A80036" points="140.951,361.749,135.2572,353.7128,136.6526,359.1948,131.1706,360.5902,140.951,361.749" style="stroke: #A80036; stroke-width: 1.0;"/><!--link FileEnumerator to ConfigArrayFactory--><path d="M152.041,201.542 C152.981,212.47 154.046,224.847 154.984,235.749 " fill="none" id="FileEnumerator-ConfigArrayFactory" style="stroke: #A80036; stroke-width: 1.0;"/><polygon fill="#A80036" points="156.122,248.986,159.3358,239.6762,155.6934,244.0044,151.3653,240.362,156.122,248.986" style="stroke: #A80036; stroke-width: 1.0;"/><line style="stroke: #A80036; stroke-width: 1.0;" x1="155.6934" x2="155.008" y1="244.0044" y2="236.034"/><polygon fill="#A80036" points="150.893,188.199,147.422,194.5198,151.9215,200.1548,155.3925,193.8341,150.893,188.199" style="stroke: #A80036; stroke-width: 1.0;"/><!--link ConfigArrayFactory to ConfigArray--><path d="M159.713,283.378 C162.343,302.836 166.736,335.348 169.626,356.733 " fill="none" id="ConfigArrayFactory-ConfigArray" style="stroke: #A80036; stroke-width: 1.0; stroke-dasharray: 7.0,7.0;"/><polygon fill="#A80036" points="170.326,361.915,173.0841,352.4602,169.6561,356.9601,165.1563,353.5321,170.326,361.915" style="stroke: #A80036; stroke-width: 1.0;"/><text fill="#000000" font-family="sans-serif" font-size="13" lengthAdjust="spacingAndGlyphs" textLength="27" x="167.5" y="328.0669">load</text><!--link ConfigArrayFactory to Parser--><path d="M139.346,283.063 C121.214,300.434 94.5031,329.969 83.5,362 C73.15,392.13 82.567,429.09 90.7107,451.841 " fill="none" id="ConfigArrayFactory-Parser" style="stroke: #A80036; stroke-width: 1.0; stroke-dasharray: 7.0,7.0;"/><polygon fill="#A80036" points="92.5275,456.75,93.1545,446.9211,90.7918,452.0609,85.652,449.6982,92.5275,456.75" style="stroke: #A80036; stroke-width: 1.0;"/><text fill="#000000" font-family="sans-serif" font-size="13" lengthAdjust="spacingAndGlyphs" textLength="27" x="84.5" y="383.5669">load</text><!--link ConfigArrayFactory to Plugin--><path d="M177.005,283.092 C195.983,300.269 223.267,329.453 232.5,362 C241.14,392.458 234.65,429.327 228.842,451.969 " fill="none" id="ConfigArrayFactory-Plugin" style="stroke: #A80036; stroke-width: 1.0; stroke-dasharray: 7.0,7.0;"/><polygon fill="#A80036" points="227.542,456.853,233.7198,449.1826,228.8265,452.0208,225.9883,447.1275,227.542,456.853" style="stroke: #A80036; stroke-width: 1.0;"/><text fill="#000000" font-family="sans-serif" font-size="13" lengthAdjust="spacingAndGlyphs" textLength="27" x="237.5" y="383.5669">load</text><!--link ConfigArray to Parser--><path d="M151.549,406.691 C141.68,419.264 129.946,434.213 120.119,446.731 " fill="none" id="ConfigArray-Parser" style="stroke: #A80036; stroke-width: 1.0;"/><polygon fill="#A80036" points="112.07,456.986,120.7736,452.3766,115.1574,453.053,114.4809,447.4368,112.07,456.986" style="stroke: #A80036; stroke-width: 1.0;"/><line style="stroke: #A80036; stroke-width: 1.0;" x1="115.1574" x2="120.097" y1="453.053" y2="446.7605"/><polygon fill="#FFFFFF" points="159.784,396.199,152.9329,398.4491,152.375,405.6386,159.226,403.3885,159.784,396.199" style="stroke: #A80036; stroke-width: 1.0;"/><!--link ConfigArray to Plugin--><path d="M187.611,408.107 C193.929,419.858 201.251,433.477 207.551,445.195 " fill="none" id="ConfigArray-Plugin" style="stroke: #A80036; stroke-width: 1.0;"/><polygon fill="#A80036" points="213.89,456.986,213.1514,447.1649,211.5224,452.5821,206.1052,450.9531,213.89,456.986" style="stroke: #A80036; stroke-width: 1.0;"/><line style="stroke: #A80036; stroke-width: 1.0;" x1="211.5224" x2="207.7345" y1="452.5821" y2="445.5365"/><polygon fill="#FFFFFF" points="181.209,396.199,180.527,403.3778,186.8913,406.7684,187.5733,399.5896,181.209,396.199" style="stroke: #A80036; stroke-width: 1.0;"/><!--link Plugin to Rule--><path d="M207.346,502.6331 C200.798,514.5742 193.153,528.5142 186.61,540.4464 " fill="none" id="Plugin-Rule" style="stroke: #A80036; stroke-width: 1.0;"/><polygon fill="#A80036" points="180.282,551.9863,188.1168,546.0183,182.6862,547.6022,181.1023,542.1717,180.282,551.9863" style="stroke: #A80036; stroke-width: 1.0;"/><line style="stroke: #A80036; stroke-width: 1.0;" x1="182.6862" x2="186.5325" y1="547.6022" y2="540.5877"/><polygon fill="#A80036" points="213.616,491.1994,207.2237,494.5369,207.846,501.7211,214.2382,498.3836,213.616,491.1994" style="stroke: #A80036; stroke-width: 1.0;"/><!--link Plugin to Environment--><path d="M237.654,502.6331 C244.202,514.5742 251.847,528.5142 258.39,540.4464 " fill="none" id="Plugin-Environment" style="stroke: #A80036; stroke-width: 1.0;"/><polygon fill="#A80036" points="264.718,551.9863,263.8977,542.1717,262.3138,547.6022,256.8832,546.0183,264.718,551.9863" style="stroke: #A80036; stroke-width: 1.0;"/><line style="stroke: #A80036; stroke-width: 1.0;" x1="262.3138" x2="258.4675" y1="547.6022" y2="540.5877"/><polygon fill="#A80036" points="231.384,491.1994,230.7618,498.3836,237.154,501.7211,237.7763,494.5369,231.384,491.1994" style="stroke: #A80036; stroke-width: 1.0;"/></g></svg>