<?xml version="1.0" encoding="UTF-8" standalone="no"?><svg xmlns="http://www.w3.org/2000/svg" xmlns:xlink="http://www.w3.org/1999/xlink" contentScriptType="application/ecmascript" contentStyleType="text/css" height="628px" preserveAspectRatio="none" style="width:707px;height:628px;" version="1.1" viewBox="0 0 707 628" width="707px" zoomAndPan="magnify"><defs><filter height="300%" id="f15zhdsmm7z0mc" width="300%" x="-1" y="-1"><feGaussianBlur result="blurOut" stdDeviation="2.0"/><feColorMatrix in="blurOut" result="blurOut2" type="matrix" values="0 0 0 0 0 0 0 0 0 0 0 0 0 0 0 0 0 0 .4 0"/><feOffset dx="4.0" dy="4.0" in="blurOut2" result="blurOut3"/><feBlend in="SourceGraphic" in2="blurOut3" mode="normal"/></filter></defs><g><!--cluster depending on fs--><rect fill="#FFFFFF" filter="url(#f15zhdsmm7z0mc)" height="291" style="stroke: #000000; stroke-width: 1.5;" width="145" x="245.5" y="24"/><text fill="#000000" font-family="sans-serif" font-size="14" font-weight="bold" lengthAdjust="spacingAndGlyphs" textLength="129" x="253.5" y="38.9951">depending on fs</text><rect fill="#FEFECE" filter="url(#f15zhdsmm7z0mc)" height="33.9688" style="stroke: #A80036; stroke-width: 1.5;" width="74" x="280.5" y="59"/><text fill="#000000" font-family="sans-serif" font-size="12" lengthAdjust="spacingAndGlyphs" textLength="60" x="287.5" y="72.1387">CLIEngine</text><line style="stroke: #A80036; stroke-width: 1.5;" x1="281.5" x2="353.5" y1="76.9688" y2="76.9688"/><rect fill="#FEFECE" filter="url(#f15zhdsmm7z0mc)" height="33.9688" style="stroke: #A80036; stroke-width: 1.5;" width="53" x="296" y="154"/><text fill="#000000" font-family="sans-serif" font-size="12" lengthAdjust="spacingAndGlyphs" textLength="39" x="303" y="167.1387">Config</text><line style="stroke: #A80036; stroke-width: 1.5;" x1="297" x2="348" y1="171.9688" y2="171.9688"/><rect fill="#FEFECE" filter="url(#f15zhdsmm7z0mc)" height="33.9688" style="stroke: #A80036; stroke-width: 1.5;" width="59" x="281" y="265"/><text fill="#000000" font-family="sans-serif" font-size="12" lengthAdjust="spacingAndGlyphs" textLength="45" x="288" y="278.1387">Plugins</text><line style="stroke: #A80036; stroke-width: 1.5;" x1="282" x2="339" y1="282.9688" y2="282.9688"/><rect fill="#FEFECE" filter="url(#f15zhdsmm7z0mc)" height="33.9688" style="stroke: #A80036; stroke-width: 1.5;" width="49" x="369" y="378"/><text fill="#000000" font-family="sans-serif" font-size="12" lengthAdjust="spacingAndGlyphs" textLength="35" x="376" y="391.1387">Linter</text><line style="stroke: #A80036; stroke-width: 1.5;" x1="370" x2="417" y1="395.9688" y2="395.9688"/><rect fill="#FEFECE" filter="url(#f15zhdsmm7z0mc)" height="33.9688" style="stroke: #A80036; stroke-width: 1.5;" width="92" x="570.5" y="265"/><text fill="#000000" font-family="sans-serif" font-size="12" lengthAdjust="spacingAndGlyphs" textLength="78" x="577.5" y="278.1387">ConfigCache</text><line style="stroke: #A80036; stroke-width: 1.5;" x1="571.5" x2="661.5" y1="282.9688" y2="282.9688"/><rect fill="#FEFECE" filter="url(#f15zhdsmm7z0mc)" height="33.9688" style="stroke: #A80036; stroke-width: 1.5;" width="83" x="497" y="489"/><text fill="#000000" font-family="sans-serif" font-size="12" lengthAdjust="spacingAndGlyphs" textLength="69" x="504" y="502.1387">ConfigData</text><line style="stroke: #A80036; stroke-width: 1.5;" x1="498" x2="579" y1="506.9688" y2="506.9688"/><rect fill="#FEFECE" filter="url(#f15zhdsmm7z0mc)" height="33.9688" style="stroke: #A80036; stroke-width: 1.5;" width="62" x="372.5" y="489"/><text fill="#000000" font-family="sans-serif" font-size="12" lengthAdjust="spacingAndGlyphs" textLength="48" x="379.5" y="502.1387">Parsers</text><line style="stroke: #A80036; stroke-width: 1.5;" x1="373.5" x2="433.5" y1="506.9688" y2="506.9688"/><rect fill="#FEFECE" filter="url(#f15zhdsmm7z0mc)" height="33.9688" style="stroke: #A80036; stroke-width: 1.5;" width="99" x="6" y="489"/><text fill="#000000" font-family="sans-serif" font-size="12" lengthAdjust="spacingAndGlyphs" textLength="85" x="13" y="502.1387">Environments</text><line style="stroke: #A80036; stroke-width: 1.5;" x1="7" x2="104" y1="506.9688" y2="506.9688"/><rect fill="#FEFECE" filter="url(#f15zhdsmm7z0mc)" height="33.9688" style="stroke: #A80036; stroke-width: 1.5;" width="48" x="230.5" y="489"/><text fill="#000000" font-family="sans-serif" font-size="12" lengthAdjust="spacingAndGlyphs" textLength="34" x="237.5" y="502.1387">Rules</text><line style="stroke: #A80036; stroke-width: 1.5;" x1="231.5" x2="277.5" y1="506.9688" y2="506.9688"/><rect fill="#FEFECE" filter="url(#f15zhdsmm7z0mc)" height="33.9688" style="stroke: #A80036; stroke-width: 1.5;" width="55" x="376" y="584"/><text fill="#000000" font-family="sans-serif" font-size="12" lengthAdjust="spacingAndGlyphs" textLength="41" x="383" y="597.1387">Parser</text><line style="stroke: #A80036; stroke-width: 1.5;" x1="377" x2="430" y1="601.9688" y2="601.9688"/><rect fill="#FEFECE" filter="url(#f15zhdsmm7z0mc)" height="33.9688" style="stroke: #A80036; stroke-width: 1.5;" width="52" x="143.5" y="489"/><text fill="#000000" font-family="sans-serif" font-size="12" lengthAdjust="spacingAndGlyphs" textLength="38" x="150.5" y="502.1387">Plugin</text><line style="stroke: #A80036; stroke-width: 1.5;" x1="144.5" x2="194.5" y1="506.9688" y2="506.9688"/><rect fill="#FEFECE" filter="url(#f15zhdsmm7z0mc)" height="33.9688" style="stroke: #A80036; stroke-width: 1.5;" width="92" x="58.5" y="584"/><text fill="#000000" font-family="sans-serif" font-size="12" lengthAdjust="spacingAndGlyphs" textLength="78" x="65.5" y="597.1387">Environment</text><line style="stroke: #A80036; stroke-width: 1.5;" x1="59.5" x2="149.5" y1="601.9688" y2="601.9688"/><rect fill="#FEFECE" filter="url(#f15zhdsmm7z0mc)" height="33.9688" style="stroke: #A80036; stroke-width: 1.5;" width="41" x="206" y="584"/><text fill="#000000" font-family="sans-serif" font-size="12" lengthAdjust="spacingAndGlyphs" textLength="27" x="213" y="597.1387">Rule</text><line style="stroke: #A80036; stroke-width: 1.5;" x1="207" x2="246" y1="601.9688" y2="601.9688"/><!--link CLIEngine to Linter--><path d="M367.566,83.724 C453.514,98.438 625.139,142.59 679.5,265 C689.962,288.559 695.381,302.695 679.5,323 C649.066,361.913 501.785,382.522 431.274,390.297 " fill="none" id="CLIEngine-Linter" style="stroke: #A80036; stroke-width: 1.0;"/><polygon fill="#A80036" points="418.253,391.683,427.6258,394.7081,423.2249,391.1539,426.7792,386.7531,418.253,391.683" style="stroke: #A80036; stroke-width: 1.0;"/><line style="stroke: #A80036; stroke-width: 1.0;" x1="423.2249" x2="431.1805" y1="391.1539" y2="390.3075"/><polygon fill="#A80036" points="354.538,81.608,359.8191,86.5182,366.3828,83.5318,361.1017,78.6216,354.538,81.608" style="stroke: #A80036; stroke-width: 1.0;"/><!--link CLIEngine to Config--><path d="M319.088,106.542 C319.676,117.47 320.341,129.847 320.927,140.749 " fill="none" id="CLIEngine-Config" style="stroke: #A80036; stroke-width: 1.0;"/><polygon fill="#A80036" points="321.639,153.986,325.1506,144.7844,321.3708,148.9932,317.1621,145.2135,321.639,153.986" style="stroke: #A80036; stroke-width: 1.0;"/><line style="stroke: #A80036; stroke-width: 1.0;" x1="321.3708" x2="320.941" y1="148.9932" y2="141.005"/><polygon fill="#A80036" points="318.371,93.199,314.6992,99.4053,319.0159,105.1817,322.6877,98.9754,318.371,93.199" style="stroke: #A80036; stroke-width: 1.0;"/><!--link Config to Linter--><path d="M334.171,188.379 C339.78,196.882 346.201,207.637 350.5,218 C372.693,271.502 385.208,339.102 390.484,372.833 " fill="none" id="Config-Linter" style="stroke: #A80036; stroke-width: 1.0;"/><polygon fill="#A80036" points="391.269,377.949,393.8575,368.4464,390.5105,373.0069,385.9501,369.6599,391.269,377.949" style="stroke: #A80036; stroke-width: 1.0;"/><!--link Config to ConfigCache--><path d="M362.243,174.261 C408.05,178.195 484.584,188.912 543.5,218 C562.16,227.213 579.912,242.334 593.236,255.453 " fill="none" id="Config-ConfigCache" style="stroke: #A80036; stroke-width: 1.0;"/><polygon fill="#A80036" points="602.505,264.963,599.0883,255.7258,599.0154,261.3822,593.359,261.3092,602.505,264.963" style="stroke: #A80036; stroke-width: 1.0;"/><line style="stroke: #A80036; stroke-width: 1.0;" x1="599.0154" x2="593.4315" y1="261.3822" y2="255.6535"/><polygon fill="#A80036" points="349.067,173.246,354.7415,177.6957,361.0314,174.1691,355.3569,169.7194,349.067,173.246" style="stroke: #A80036; stroke-width: 1.0;"/><text fill="#000000" font-family="sans-serif" font-size="13" lengthAdjust="spacingAndGlyphs" textLength="49" x="569.5" y="231.0669">register</text><!--link Config to Plugins--><path d="M319.302,201.052 C317.579,216.698 315.459,235.954 313.732,251.646 " fill="none" id="Config-Plugins" style="stroke: #A80036; stroke-width: 1.0;"/><polygon fill="#A80036" points="312.278,264.851,317.2391,256.3429,312.8253,259.881,309.2871,255.4673,312.278,264.851" style="stroke: #A80036; stroke-width: 1.0;"/><line style="stroke: #A80036; stroke-width: 1.0;" x1="312.8253" x2="313.7005" y1="259.881" y2="251.929"/><polygon fill="#A80036" points="320.729,188.083,316.0963,193.6091,319.4155,200.0109,324.0482,194.4848,320.729,188.083" style="stroke: #A80036; stroke-width: 1.0;"/><text fill="#000000" font-family="sans-serif" font-size="13" lengthAdjust="spacingAndGlyphs" textLength="23" x="318.5" y="231.0669">use</text><!--link Config to ConfigData--><path d="M345.534,188.011 C356.507,196.256 369.406,206.897 379.5,218 C459.767,306.291 483.422,331.117 527.5,442 C532.811,455.361 535.564,471.326 536.987,483.841 " fill="none" id="Config-ConfigData" style="stroke: #A80036; stroke-width: 1.0; stroke-dasharray: 7.0,7.0;"/><polygon fill="#A80036" points="537.52,488.976,540.5706,479.6115,537.0044,484.0027,532.6132,480.4365,537.52,488.976" style="stroke: #A80036; stroke-width: 1.0;"/><text fill="#000000" font-family="sans-serif" font-size="13" lengthAdjust="spacingAndGlyphs" textLength="27" x="484.5" y="344.0669">load</text><!--link Config to Environments--><path d="M298.419,188.126 C253.184,219.566 154.996,293.43 98.5,378 C81.1531,403.967 79.3844,412.377 69.5,442 C64.9384,455.671 61.4265,471.508 59.0609,483.884 " fill="none" id="Config-Environments" style="stroke: #A80036; stroke-width: 1.0; stroke-dasharray: 7.0,7.0;"/><polygon fill="#A80036" points="58.1176,488.959,63.6936,480.8406,59.0305,484.043,55.8281,479.38,58.1176,488.959" style="stroke: #A80036; stroke-width: 1.0;"/><text fill="#000000" font-family="sans-serif" font-size="13" lengthAdjust="spacingAndGlyphs" textLength="23" x="134.5" y="344.0669">use</text><!--link Plugins to Environments--><path d="M280.795,293.506 C243.253,307.932 178.262,336.85 134.5,378 C101.5542,408.979 76.8721,456.586 64.458,483.859 " fill="none" id="Plugins-Environments" style="stroke: #A80036; stroke-width: 1.0;"/><polygon fill="#A80036" points="62.2836,488.706,69.6159,482.1305,64.3294,484.1437,62.3162,478.8572,62.2836,488.706" style="stroke: #A80036; stroke-width: 1.0;"/><text fill="#000000" font-family="sans-serif" font-size="13" lengthAdjust="spacingAndGlyphs" textLength="49" x="135.5" y="399.5669">register</text><!--link Plugins to Linter--><path d="M322.747,299.378 C337.543,319.166 362.434,352.454 378.403,373.81 " fill="none" id="Plugins-Linter" style="stroke: #A80036; stroke-width: 1.0;"/><polygon fill="#A80036" points="381.473,377.915,379.2867,368.3119,378.4787,373.9107,372.8799,373.1027,381.473,377.915" style="stroke: #A80036; stroke-width: 1.0;"/><!--link Plugins to Rules--><path d="M300.093,299.332 C282.99,327.247 249.63,386.51 237.5,442 C234.403,456.167 238.654,471.918 243.678,484.127 " fill="none" id="Plugins-Rules" style="stroke: #A80036; stroke-width: 1.0; stroke-dasharray: 7.0,7.0;"/><polygon fill="#A80036" points="245.705,488.79,245.7864,478.9415,243.7122,484.2043,238.4493,482.13,245.705,488.79" style="stroke: #A80036; stroke-width: 1.0;"/><text fill="#000000" font-family="sans-serif" font-size="13" lengthAdjust="spacingAndGlyphs" textLength="49" x="259.5" y="399.5669">register</text><!--link Plugins to Plugin--><path d="M276.623,307.44 C254.676,324.871 227.018,350.093 209.5,378 C190.435,408.37 179.788,448.565 174.357,475.528 " fill="none" id="Plugins-Plugin" style="stroke: #A80036; stroke-width: 1.0;"/><polygon fill="#A80036" points="171.916,488.649,177.4952,480.5328,172.8309,483.7334,169.6303,479.069,171.916,488.649" style="stroke: #A80036; stroke-width: 1.0;"/><line style="stroke: #A80036; stroke-width: 1.0;" x1="172.8309" x2="174.294" y1="483.7334" y2="475.8685"/><polygon fill="#A80036" points="287.182,299.296,279.9881,299.7931,277.68,306.6249,284.874,306.1278,287.182,299.296" style="stroke: #A80036; stroke-width: 1.0;"/><text fill="#000000" font-family="sans-serif" font-size="13" lengthAdjust="spacingAndGlyphs" textLength="27" x="210.5" y="399.5669">load</text><!--link Linter to Parsers--><path d="M396.165,425.052 C397.601,440.698 399.367,459.954 400.807,475.646 " fill="none" id="Linter-Parsers" style="stroke: #A80036; stroke-width: 1.0;"/><polygon fill="#A80036" points="402.018,488.851,405.1784,479.523,401.5609,483.8719,397.2119,480.2544,402.018,488.851" style="stroke: #A80036; stroke-width: 1.0;"/><line style="stroke: #A80036; stroke-width: 1.0;" x1="401.5609" x2="400.831" y1="483.8719" y2="475.905"/><polygon fill="#A80036" points="394.976,412.083,391.5413,418.4236,396.0731,424.0327,399.5078,417.6922,394.976,412.083" style="stroke: #A80036; stroke-width: 1.0;"/><text fill="#000000" font-family="sans-serif" font-size="13" lengthAdjust="spacingAndGlyphs" textLength="69" x="400.5" y="455.0669">load &amp; use</text><!--link Linter to Rules--><path d="M362.674,420.173 C339.663,438.218 308.353,462.77 285.338,480.817 " fill="none" id="Linter-Rules" style="stroke: #A80036; stroke-width: 1.0;"/><polygon fill="#A80036" points="275.094,488.851,284.6443,486.4445,279.0284,485.7655,279.7075,480.1495,275.094,488.851" style="stroke: #A80036; stroke-width: 1.0;"/><line style="stroke: #A80036; stroke-width: 1.0;" x1="279.0284" x2="285.324" y1="485.7655" y2="480.8285"/><polygon fill="#A80036" points="372.99,412.083,365.8002,412.6375,363.5468,419.4875,370.7366,418.933,372.99,412.083" style="stroke: #A80036; stroke-width: 1.0;"/><text fill="#000000" font-family="sans-serif" font-size="13" lengthAdjust="spacingAndGlyphs" textLength="23" x="333.5" y="455.0669">use</text><!--link Linter to Environments--><path d="M356.506,407.93 C299.02,426.468 187.596,462.401 117.624,484.966 " fill="none" id="Linter-Environments" style="stroke: #A80036; stroke-width: 1.0;"/><polygon fill="#A80036" points="105.0639,489.016,114.8572,490.0607,109.8226,487.4814,112.4019,482.4468,105.0639,489.016" style="stroke: #A80036; stroke-width: 1.0;"/><line style="stroke: #A80036; stroke-width: 1.0;" x1="109.8226" x2="117.4365" y1="487.4814" y2="485.0265"/><polygon fill="#A80036" points="368.92,403.927,361.9819,401.9616,357.4992,407.61,364.4372,409.5754,368.92,403.927" style="stroke: #A80036; stroke-width: 1.0;"/><text fill="#000000" font-family="sans-serif" font-size="13" lengthAdjust="spacingAndGlyphs" textLength="23" x="246.5" y="455.0669">use</text><!--link Linter to ConfigData--><path d="M418.26,407.64 C435.119,416.093 457.545,428.398 475.5,442 C492.26,454.697 508.985,471.673 520.986,484.805 " fill="none" id="Linter-ConfigData" style="stroke: #A80036; stroke-width: 1.0; stroke-dasharray: 7.0,7.0;"/><polygon fill="#A80036" points="524.554,488.747,521.4816,479.3896,521.1993,485.0394,515.5495,484.7571,524.554,488.747" style="stroke: #A80036; stroke-width: 1.0;"/><text fill="#000000" font-family="sans-serif" font-size="13" lengthAdjust="spacingAndGlyphs" textLength="23" x="495.5" y="455.0669">use</text><!--link Parsers to Parser--><path d="M403.5,536.5421 C403.5,547.4704 403.5,559.8466 403.5,570.749 " fill="none" id="Parsers-Parser" style="stroke: #A80036; stroke-width: 1.0;"/><polygon fill="#A80036" points="403.5,583.9863,407.5,574.9863,403.5,578.9863,399.5,574.9863,403.5,583.9863" style="stroke: #A80036; stroke-width: 1.0;"/><line style="stroke: #A80036; stroke-width: 1.0;" x1="403.5" x2="403.5" y1="578.9863" y2="570.9863"/><polygon fill="#A80036" points="403.5,523.1994,399.5,529.1994,403.5,535.1994,407.5,529.1994,403.5,523.1994" style="stroke: #A80036; stroke-width: 1.0;"/><!--link Environments to Environment--><path d="M64.0351,523.1994 C72.2559,538.802 84.7241,562.4662 93.6466,579.4006 " fill="none" id="Environments-Environment" style="stroke: #A80036; stroke-width: 1.0;"/><polygon fill="#A80036" points="96.0627,583.9863,95.406,574.1594,93.7319,579.5628,88.3284,577.8887,96.0627,583.9863" style="stroke: #A80036; stroke-width: 1.0;"/><!--link Rules to Rule--><path d="M249.623,523.1994 C244.965,538.6686 237.922,562.0622 232.833,578.965 " fill="none" id="Rules-Rule" style="stroke: #A80036; stroke-width: 1.0;"/><polygon fill="#A80036" points="231.321,583.9863,237.7456,576.5214,232.7623,579.1985,230.0852,574.2153,231.321,583.9863" style="stroke: #A80036; stroke-width: 1.0;"/><!--link Plugin to Rule--><path d="M186.436,534.6331 C193.832,546.6999 202.479,560.8079 209.843,572.8226 " fill="none" id="Plugin-Rule" style="stroke: #A80036; stroke-width: 1.0;"/><polygon fill="#A80036" points="216.685,583.9863,215.3925,574.2226,214.0723,579.7232,208.5716,578.403,216.685,583.9863" style="stroke: #A80036; stroke-width: 1.0;"/><line style="stroke: #A80036; stroke-width: 1.0;" x1="214.0723" x2="209.8915" y1="579.7232" y2="572.9025"/><polygon fill="#A80036" points="179.429,523.1994,179.1543,530.4053,185.7002,533.4303,185.9749,526.2245,179.429,523.1994" style="stroke: #A80036; stroke-width: 1.0;"/><!--link Plugin to Environment--><path d="M150.517,534.1609 C141.95,546.4178 131.859,560.856 123.313,573.0836 " fill="none" id="Plugin-Environment" style="stroke: #A80036; stroke-width: 1.0;"/><polygon fill="#A80036" points="115.692,583.9863,124.1263,578.9008,118.5563,579.888,117.5691,574.318,115.692,583.9863" style="stroke: #A80036; stroke-width: 1.0;"/><line style="stroke: #A80036; stroke-width: 1.0;" x1="118.5563" x2="123.1395" y1="579.888" y2="573.3309"/><polygon fill="#A80036" points="158.178,523.1994,151.4622,525.8258,151.3036,533.0352,158.0194,530.4088,158.178,523.1994" style="stroke: #A80036; stroke-width: 1.0;"/></g></svg>