<?xml version="1.0" encoding="UTF-8" standalone="no"?><svg xmlns="http://www.w3.org/2000/svg" xmlns:xlink="http://www.w3.org/1999/xlink" contentScriptType="application/ecmascript" contentStyleType="text/css" height="718px" preserveAspectRatio="none" style="width:846px;height:718px;" version="1.1" viewBox="0 0 846 718" width="846px" zoomAndPan="magnify"><defs><filter height="300%" id="f1fcph4s5ostpz" width="300%" x="-1" y="-1"><feGaussianBlur result="blurOut" stdDeviation="2.0"/><feColorMatrix in="blurOut" result="blurOut2" type="matrix" values="0 0 0 0 0 0 0 0 0 0 0 0 0 0 0 0 0 0 .4 0"/><feOffset dx="4.0" dy="4.0" in="blurOut2" result="blurOut3"/><feBlend in="SourceGraphic" in2="blurOut3" mode="normal"/></filter></defs><g><rect fill="#FEFECE" filter="url(#f1fcph4s5ostpz)" height="33.9688" style="stroke: #A80036; stroke-width: 1.5;" width="74" x="99" y="8"/><text fill="#000000" font-family="sans-serif" font-size="12" lengthAdjust="spacingAndGlyphs" textLength="60" x="106" y="21.1387">CLIEngine</text><line style="stroke: #A80036; stroke-width: 1.5;" x1="100" x2="172" y1="25.9688" y2="25.9688"/><rect fill="#FEFECE" filter="url(#f1fcph4s5ostpz)" height="33.9688" style="stroke: #A80036; stroke-width: 1.5;" width="49" x="133.5" y="452"/><text fill="#000000" font-family="sans-serif" font-size="12" lengthAdjust="spacingAndGlyphs" textLength="35" x="140.5" y="465.1387">Linter</text><line style="stroke: #A80036; stroke-width: 1.5;" x1="134.5" x2="181.5" y1="469.9688" y2="469.9688"/><rect fill="#FEFECE" filter="url(#f1fcph4s5ostpz)" height="33.9688" style="stroke: #A80036; stroke-width: 1.5;" width="48" x="262" y="563"/><text fill="#000000" font-family="sans-serif" font-size="12" lengthAdjust="spacingAndGlyphs" textLength="34" x="269" y="576.1387">Rules</text><line style="stroke: #A80036; stroke-width: 1.5;" x1="263" x2="309" y1="580.9688" y2="580.9688"/><rect fill="#FEFECE" filter="url(#f1fcph4s5ostpz)" height="33.9688" style="stroke: #A80036; stroke-width: 1.5;" width="41" x="265.5" y="674"/><text fill="#000000" font-family="sans-serif" font-size="12" lengthAdjust="spacingAndGlyphs" textLength="27" x="272.5" y="687.1387">Rule</text><line style="stroke: #A80036; stroke-width: 1.5;" x1="266.5" x2="305.5" y1="691.9688" y2="691.9688"/><rect fill="#FEFECE" filter="url(#f1fcph4s5ostpz)" height="33.9688" style="stroke: #A80036; stroke-width: 1.5;" width="99" x="448.5" y="563"/><text fill="#000000" font-family="sans-serif" font-size="12" lengthAdjust="spacingAndGlyphs" textLength="85" x="455.5" y="576.1387">Environments</text><line style="stroke: #A80036; stroke-width: 1.5;" x1="449.5" x2="546.5" y1="580.9688" y2="580.9688"/><rect fill="#FEFECE" filter="url(#f1fcph4s5ostpz)" height="33.9688" style="stroke: #A80036; stroke-width: 1.5;" width="92" x="452" y="674"/><text fill="#000000" font-family="sans-serif" font-size="12" lengthAdjust="spacingAndGlyphs" textLength="78" x="459" y="687.1387">Environment</text><line style="stroke: #A80036; stroke-width: 1.5;" x1="453" x2="543" y1="691.9688" y2="691.9688"/><rect fill="#FEFECE" filter="url(#f1fcph4s5ostpz)" height="33.9688" style="stroke: #A80036; stroke-width: 1.5;" width="59" x="483.5" y="341"/><text fill="#000000" font-family="sans-serif" font-size="12" lengthAdjust="spacingAndGlyphs" textLength="45" x="490.5" y="354.1387">Plugins</text><line style="stroke: #A80036; stroke-width: 1.5;" x1="484.5" x2="541.5" y1="358.9688" y2="358.9688"/><rect fill="#FEFECE" filter="url(#f1fcph4s5ostpz)" height="33.9688" style="stroke: #A80036; stroke-width: 1.5;" width="52" x="705" y="452"/><text fill="#000000" font-family="sans-serif" font-size="12" lengthAdjust="spacingAndGlyphs" textLength="38" x="712" y="465.1387">Plugin</text><line style="stroke: #A80036; stroke-width: 1.5;" x1="706" x2="756" y1="469.9688" y2="469.9688"/><rect fill="#FEFECE" filter="url(#f1fcph4s5ostpz)" height="33.9688" style="stroke: #A80036; stroke-width: 1.5;" width="62" x="6" y="563"/><text fill="#000000" font-family="sans-serif" font-size="12" lengthAdjust="spacingAndGlyphs" textLength="48" x="13" y="576.1387">Parsers</text><line style="stroke: #A80036; stroke-width: 1.5;" x1="7" x2="67" y1="580.9688" y2="580.9688"/><rect fill="#FEFECE" filter="url(#f1fcph4s5ostpz)" height="33.9688" style="stroke: #A80036; stroke-width: 1.5;" width="55" x="9.5" y="674"/><text fill="#000000" font-family="sans-serif" font-size="12" lengthAdjust="spacingAndGlyphs" textLength="41" x="16.5" y="687.1387">Parser</text><line style="stroke: #A80036; stroke-width: 1.5;" x1="10.5" x2="63.5" y1="691.9688" y2="691.9688"/><rect fill="#FEFECE" filter="url(#f1fcph4s5ostpz)" height="33.9688" style="stroke: #A80036; stroke-width: 1.5;" width="53" x="255.5" y="119"/><text fill="#000000" font-family="sans-serif" font-size="12" lengthAdjust="spacingAndGlyphs" textLength="39" x="262.5" y="132.1387">Config</text><line style="stroke: #A80036; stroke-width: 1.5;" x1="256.5" x2="307.5" y1="136.9688" y2="136.9688"/><rect fill="#FEFECE" filter="url(#f1fcph4s5ostpz)" height="33.9688" style="stroke: #A80036; stroke-width: 1.5;" width="92" x="200" y="341"/><text fill="#000000" font-family="sans-serif" font-size="12" lengthAdjust="spacingAndGlyphs" textLength="78" x="207" y="354.1387">ConfigCache</text><line style="stroke: #A80036; stroke-width: 1.5;" x1="201" x2="291" y1="358.9688" y2="358.9688"/><rect fill="#FEFECE" filter="url(#f1fcph4s5ostpz)" height="33.9688" style="stroke: #A80036; stroke-width: 1.5;" width="74" x="330" y="230"/><text fill="#000000" font-family="sans-serif" font-size="12" lengthAdjust="spacingAndGlyphs" textLength="60" x="337" y="243.1387">ConfigFile</text><line style="stroke: #A80036; stroke-width: 1.5;" x1="331" x2="403" y1="247.9688" y2="247.9688"/><!--link CLIEngine to Linter--><path d="M108.97,51.722 C90.3686,72.281 69,102.886 69,135 C69,135 69,135 69,359 C69,394.54 97.7391,424.886 122.555,444.464 " fill="none" id="CLIEngine-Linter" style="stroke: #A80036; stroke-width: 1.0;"/><polygon fill="#A80036" points="133.209,452.431,128.3967,443.8379,129.2047,449.4367,123.6059,450.2447,133.209,452.431" style="stroke: #A80036; stroke-width: 1.0;"/><line style="stroke: #A80036; stroke-width: 1.0;" x1="129.2047" x2="122.7975" y1="449.4367" y2="444.6455"/><polygon fill="#A80036" points="118.045,42.203,111.0097,43.7858,109.7649,50.8886,116.8001,49.3058,118.045,42.203" style="stroke: #A80036; stroke-width: 1.0;"/><text fill="#000000" font-family="sans-serif" font-size="13" lengthAdjust="spacingAndGlyphs" textLength="23" x="70" y="251.5669">use</text><!--link CLIEngine to Config--><path d="M168.006,49.895 C192.302,68.034 225.564,92.866 249.887,111.025 " fill="none" id="CLIEngine-Config" style="stroke: #A80036; stroke-width: 1.0;"/><polygon fill="#A80036" points="260.369,118.851,255.5507,110.2613,256.3626,115.8595,250.7643,116.6715,260.369,118.851" style="stroke: #A80036; stroke-width: 1.0;"/><line style="stroke: #A80036; stroke-width: 1.0;" x1="256.3626" x2="249.952" y1="115.8595" y2="111.0735"/><polygon fill="#A80036" points="157.543,42.083,159.9579,48.8777,167.1588,49.2619,164.7439,42.4672,157.543,42.083" style="stroke: #A80036; stroke-width: 1.0;"/><text fill="#000000" font-family="sans-serif" font-size="13" lengthAdjust="spacingAndGlyphs" textLength="119" x="219" y="85.0669">load with hierarchy</text><!--link Linter to Parsers--><path d="M120.552,472.791 C91.6214,477.144 53.3561,488.174 34,516 C27.2874,525.65 26.7321,538.285 28.3504,549.705 " fill="none" id="Linter-Parsers" style="stroke: #A80036; stroke-width: 1.0;"/><polygon fill="#A80036" points="31.1348,562.749,33.1686,553.1124,30.0914,557.8591,25.3447,554.7819,31.1348,562.749" style="stroke: #A80036; stroke-width: 1.0;"/><line style="stroke: #A80036; stroke-width: 1.0;" x1="30.0914" x2="28.421" y1="557.8591" y2="550.0355"/><polygon fill="#A80036" points="133.483,471.186,127.036,467.9556,121.5744,472.6642,128.0214,475.8946,133.483,471.186" style="stroke: #A80036; stroke-width: 1.0;"/><text fill="#000000" font-family="sans-serif" font-size="13" lengthAdjust="spacingAndGlyphs" textLength="91" x="35" y="529.0669">register &amp; use</text><!--link Linter to Rules--><path d="M156.097,499.439 C156.807,510.975 159.568,523.656 167,533 C186.816,557.914 221.888,569.352 248.841,574.593 " fill="none" id="Linter-Rules" style="stroke: #A80036; stroke-width: 1.0;"/><polygon fill="#A80036" points="261.694,576.754,253.4813,571.3178,256.7631,575.9254,252.1556,579.2072,261.694,576.754" style="stroke: #A80036; stroke-width: 1.0;"/><line style="stroke: #A80036; stroke-width: 1.0;" x1="256.7631" x2="248.874" y1="575.9254" y2="574.599"/><polygon fill="#A80036" points="156.073,486.237,152.0836,492.244,156.0941,498.237,160.0835,492.23,156.073,486.237" style="stroke: #A80036; stroke-width: 1.0;"/><text fill="#000000" font-family="sans-serif" font-size="13" lengthAdjust="spacingAndGlyphs" textLength="91" x="168" y="529.0669">register &amp; use</text><!--link Linter to Environments--><path d="M195.231,481.936 C253.148,500.503 365.462,536.51 435.82,559.066 " fill="none" id="Linter-Environments" style="stroke: #A80036; stroke-width: 1.0;"/><polygon fill="#A80036" points="448.447,563.114,441.0976,556.5576,443.6857,561.5877,438.6555,564.1757,448.447,563.114" style="stroke: #A80036; stroke-width: 1.0;"/><line style="stroke: #A80036; stroke-width: 1.0;" x1="443.6857" x2="436.068" y1="561.5877" y2="559.145"/><polygon fill="#A80036" points="182.726,477.927,187.2184,483.5678,194.1531,481.5905,189.6607,475.9497,182.726,477.927" style="stroke: #A80036; stroke-width: 1.0;"/><text fill="#000000" font-family="sans-serif" font-size="13" lengthAdjust="spacingAndGlyphs" textLength="23" x="350" y="529.0669">use</text><!--link Parsers to Parser--><path d="M37,610.3469 C37,625.9631 37,645.1088 37,660.7156 " fill="none" id="Parsers-Parser" style="stroke: #A80036; stroke-width: 1.0;"/><polygon fill="#A80036" points="37,673.8507,41,664.8507,37,668.8507,33,664.8507,37,673.8507" style="stroke: #A80036; stroke-width: 1.0;"/><line style="stroke: #A80036; stroke-width: 1.0;" x1="37" x2="37.0001" y1="668.8507" y2="660.8507"/><polygon fill="#A80036" points="37,597.083,33,603.083,37,609.083,41,603.083,37,597.083" style="stroke: #A80036; stroke-width: 1.0;"/><text fill="#000000" font-family="sans-serif" font-size="13" lengthAdjust="spacingAndGlyphs" textLength="23" x="38" y="640.0669">has</text><!--link Rules to Rule--><path d="M286,610.3469 C286,625.9631 286,645.1088 286,660.7156 " fill="none" id="Rules-Rule" style="stroke: #A80036; stroke-width: 1.0;"/><polygon fill="#A80036" points="286,673.8507,290,664.8507,286,668.8507,282,664.8507,286,673.8507" style="stroke: #A80036; stroke-width: 1.0;"/><line style="stroke: #A80036; stroke-width: 1.0;" x1="286" x2="286" y1="668.8507" y2="660.8507"/><polygon fill="#A80036" points="286,597.083,282,603.083,286,609.083,290,603.083,286,597.083" style="stroke: #A80036; stroke-width: 1.0;"/><text fill="#000000" font-family="sans-serif" font-size="13" lengthAdjust="spacingAndGlyphs" textLength="23" x="287" y="640.0669">has</text><!--link Environments to Environment--><path d="M498,610.3469 C498,625.9631 498,645.1088 498,660.7156 " fill="none" id="Environments-Environment" style="stroke: #A80036; stroke-width: 1.0;"/><polygon fill="#A80036" points="498,673.8507,502,664.8507,498,668.8507,494,664.8507,498,673.8507" style="stroke: #A80036; stroke-width: 1.0;"/><line style="stroke: #A80036; stroke-width: 1.0;" x1="498" x2="498" y1="668.8507" y2="660.8507"/><polygon fill="#A80036" points="498,597.083,494,603.083,498,609.083,502,603.083,498,597.083" style="stroke: #A80036; stroke-width: 1.0;"/><text fill="#000000" font-family="sans-serif" font-size="13" lengthAdjust="spacingAndGlyphs" textLength="23" x="499" y="640.0669">has</text><!--link Plugins to Environments--><path d="M525.429,375.269 C542.203,399.264 568.715,445.665 557,486 C548.986,513.592 530.052,540.834 515.779,558.631 " fill="none" id="Plugins-Environments" style="stroke: #A80036; stroke-width: 1.0;"/><polygon fill="#A80036" points="512.26,562.947,521.0482,558.5009,515.4203,559.0724,514.8488,553.4445,512.26,562.947" style="stroke: #A80036; stroke-width: 1.0;"/><text fill="#000000" font-family="sans-serif" font-size="13" lengthAdjust="spacingAndGlyphs" textLength="49" x="560" y="473.5669">register</text><!--link Plugins to Linter--><path d="M483.312,365.67 C449.905,373.544 394.261,387.77 348,405 C331.418,411.176 328.524,415.672 312,422 C269.58,438.245 218.837,452.43 187.509,460.607 " fill="none" id="Plugins-Linter" style="stroke: #A80036; stroke-width: 1.0;"/><polygon fill="#A80036" points="182.652,461.867,192.3681,463.4786,187.4918,460.6113,190.3591,455.735,182.652,461.867" style="stroke: #A80036; stroke-width: 1.0;"/><text fill="#000000" font-family="sans-serif" font-size="13" lengthAdjust="spacingAndGlyphs" textLength="23" x="349" y="418.0669">use</text><!--link Plugins to Rules--><path d="M504.376,375.2 C485.904,408.601 439.487,485.925 382,533 C362.011,549.368 335.227,561.577 315.029,569.288 " fill="none" id="Plugins-Rules" style="stroke: #A80036; stroke-width: 1.0; stroke-dasharray: 7.0,7.0;"/><polygon fill="#A80036" points="310.305,571.056,320.1359,571.6498,314.9882,569.3045,317.3335,564.1567,310.305,571.056" style="stroke: #A80036; stroke-width: 1.0;"/><text fill="#000000" font-family="sans-serif" font-size="13" lengthAdjust="spacingAndGlyphs" textLength="49" x="456" y="473.5669">register</text><!--link Plugins to Plugin--><path d="M555.331,370.251 C581.902,378.153 616.422,389.984 645,405 C665.234,415.632 685.961,430.668 701.995,443.384 " fill="none" id="Plugins-Plugin" style="stroke: #A80036; stroke-width: 1.0;"/><polygon fill="#A80036" points="712.282,451.734,707.8161,442.9559,708.4003,448.5825,702.7737,449.1666,712.282,451.734" style="stroke: #A80036; stroke-width: 1.0;"/><line style="stroke: #A80036; stroke-width: 1.0;" x1="708.4003" x2="702.189" y1="448.5825" y2="443.5415"/><polygon fill="#A80036" points="542.612,366.586,547.2696,372.0911,554.1427,369.9091,549.4851,364.404,542.612,366.586" style="stroke: #A80036; stroke-width: 1.0;"/><text fill="#000000" font-family="sans-serif" font-size="13" lengthAdjust="spacingAndGlyphs" textLength="23" x="673" y="418.0669">has</text><!--link Config to Linter--><path d="M272.271,153.02 C252.294,186.624 206.474,267.46 182,341 C170.027,376.977 163.403,420.793 160.284,446.424 " fill="none" id="Config-Linter" style="stroke: #A80036; stroke-width: 1.0;"/><polygon fill="#A80036" points="159.67,451.608,164.6991,443.1399,160.2571,446.6426,156.7545,442.2006,159.67,451.608" style="stroke: #A80036; stroke-width: 1.0;"/><text fill="#000000" font-family="sans-serif" font-size="13" lengthAdjust="spacingAndGlyphs" textLength="23" x="201" y="307.0669">use</text><!--link Config to ConfigCache--><path d="M277.215,166.24 C270.326,208.342 257.684,285.596 250.791,327.72 " fill="none" id="Config-ConfigCache" style="stroke: #A80036; stroke-width: 1.0;"/><polygon fill="#A80036" points="248.651,340.799,254.0522,332.5633,249.4586,335.8647,246.1573,331.2711,248.651,340.799" style="stroke: #A80036; stroke-width: 1.0;"/><line style="stroke: #A80036; stroke-width: 1.0;" x1="249.4586" x2="250.7505" y1="335.8647" y2="327.97"/><polygon fill="#A80036" points="279.353,153.177,274.4369,158.4526,277.4159,165.0196,282.332,159.744,279.353,153.177" style="stroke: #A80036; stroke-width: 1.0;"/><text fill="#000000" font-family="sans-serif" font-size="13" lengthAdjust="spacingAndGlyphs" textLength="23" x="268" y="251.5669">use</text><!--link Config to Plugins--><path d="M320.54,154.629 C368.991,178.874 451.013,227.221 494,294 C500.594,304.244 504.992,316.885 507.878,328.149 " fill="none" id="Config-Plugins" style="stroke: #A80036; stroke-width: 1.0;"/><polygon fill="#A80036" points="510.696,340.952,512.6679,331.3026,509.6212,336.0689,504.8549,333.0222,510.696,340.952" style="stroke: #A80036; stroke-width: 1.0;"/><line style="stroke: #A80036; stroke-width: 1.0;" x1="509.6212" x2="507.9015" y1="336.0689" y2="328.256"/><polygon fill="#A80036" points="308.698,148.849,312.3359,155.0752,319.4823,154.1119,315.8445,147.8857,308.698,148.849" style="stroke: #A80036; stroke-width: 1.0;"/><text fill="#000000" font-family="sans-serif" font-size="13" lengthAdjust="spacingAndGlyphs" textLength="27" x="472" y="251.5669">load</text><!--link Config to Environments--><path d="M308.545,136.756 C415.615,136.473 810,142.455 810,246 C810,246 810,246 810,470 C810,523.849 642.27,557.331 552.773,571.363 " fill="none" id="Config-Environments" style="stroke: #A80036; stroke-width: 1.0; stroke-dasharray: 7.0,7.0;"/><polygon fill="#A80036" points="547.782,572.138,557.2891,574.71,552.7228,571.371,556.0618,566.8047,547.782,572.138" style="stroke: #A80036; stroke-width: 1.0;"/><text fill="#000000" font-family="sans-serif" font-size="13" lengthAdjust="spacingAndGlyphs" textLength="23" x="811" y="362.5669">use</text><!--link Config to ConfigFile--><path d="M294.542,153.083 C309.608,172.404 334.894,204.829 351.258,225.814 " fill="none" id="Config-ConfigFile" style="stroke: #A80036; stroke-width: 1.0; stroke-dasharray: 7.0,7.0;"/><polygon fill="#A80036" points="354.407,229.851,352.0274,220.2939,351.3326,225.9079,345.7185,225.213,354.407,229.851" style="stroke: #A80036; stroke-width: 1.0;"/><text fill="#000000" font-family="sans-serif" font-size="13" lengthAdjust="spacingAndGlyphs" textLength="27" x="331" y="196.0669">load</text><!--link ConfigFile to ConfigCache--><path d="M333.434,264.008 C319.097,271.824 302.763,282.114 290,294 C276.755,306.335 265.191,323.289 257.247,336.502 " fill="none" id="ConfigFile-ConfigCache" style="stroke: #A80036; stroke-width: 1.0; stroke-dasharray: 7.0,7.0;"/><polygon fill="#A80036" points="254.694,340.828,262.7135,335.1106,257.2355,336.5221,255.824,331.0442,254.694,340.828" style="stroke: #A80036; stroke-width: 1.0;"/><text fill="#000000" font-family="sans-serif" font-size="13" lengthAdjust="spacingAndGlyphs" textLength="49" x="291" y="307.0669">register</text><!--link ConfigFile to Plugins--><path d="M391.9,264.114 C404.924,272.724 421.022,283.656 435,294 C453.801,307.913 474.354,324.577 489.64,337.271 " fill="none" id="ConfigFile-Plugins" style="stroke: #A80036; stroke-width: 1.0; stroke-dasharray: 7.0,7.0;"/><polygon fill="#A80036" points="493.807,340.741,489.4505,331.908,489.9647,337.5415,484.3313,338.0557,493.807,340.741" style="stroke: #A80036; stroke-width: 1.0;"/><text fill="#000000" font-family="sans-serif" font-size="13" lengthAdjust="spacingAndGlyphs" textLength="27" x="458" y="307.0669">load</text><!--link ConfigFile to Rules--><path d="M362.243,264.096 C358.223,277.01 352.009,295.479 345,311 C331.568,340.743 328.722,348.997 309,375 C297.605,390.024 286.216,387.579 279,405 C257.695,456.435 270.663,523.906 279.62,557.729 " fill="none" id="ConfigFile-Rules" style="stroke: #A80036; stroke-width: 1.0; stroke-dasharray: 7.0,7.0;"/><polygon fill="#A80036" points="281.018,562.861,282.5144,553.1265,279.7051,558.0365,274.7951,555.2272,281.018,562.861" style="stroke: #A80036; stroke-width: 1.0;"/><text fill="#000000" font-family="sans-serif" font-size="13" lengthAdjust="spacingAndGlyphs" textLength="23" x="280" y="418.0669">use</text><!--link ConfigFile to Environments--><path d="M370.603,264.02 C381.199,310.598 412.721,445.249 432,486 C444.909,513.287 465.853,541.059 480.681,559.06 " fill="none" id="ConfigFile-Environments" style="stroke: #A80036; stroke-width: 1.0; stroke-dasharray: 7.0,7.0;"/><polygon fill="#A80036" points="483.935,562.972,481.2556,553.4946,480.7379,559.1277,475.1048,558.61,483.935,562.972" style="stroke: #A80036; stroke-width: 1.0;"/><text fill="#000000" font-family="sans-serif" font-size="13" lengthAdjust="spacingAndGlyphs" textLength="23" x="411" y="418.0669">use</text><!--
@startuml
object CLIEngine
object Linter
object Rules
object Rule
object Environments
object Environment
object Plugins
object Plugin
object Parsers
object Parser
object Config
object ConfigCache
object ConfigFile

CLIEngine *- -> Linter : "use"
CLIEngine *- -> Config : "load with hierarchy"
Linter *- -> Parsers : "register & use"
Linter *- -> Rules : "register & use"
Linter *- -> Environments : "use"
Parsers *- -> Parser : "has"
Rules *- -> Rule : "has"
Environments *- -> Environment : "has"
Plugins - -> Environments : "register"
Plugins - -> Linter : "use"
Plugins ..> Rules : "register"
Plugins *- -> Plugin : "has"
Config - -> Linter : "use"
Config *- -> ConfigCache : "use"
Config *- -> Plugins : "load"
Config ..> Environments : "use"
Config ..> ConfigFile : "load"
ConfigFile ..> ConfigCache : "register"
ConfigFile ..> Plugins : "load"
ConfigFile ..> Rules : "use"
ConfigFile ..> Environments : "use"
@enduml

PlantUML version 1.2019.01(Sat Feb 09 15:32:04 UTC 2019)
(GPL source distribution)
Java Runtime: Java(TM) SE Runtime Environment
JVM: Java HotSpot(TM) 64-Bit Server VM
Java Version: 1.7.0_25-b15
Operating System: Linux
Default Encoding: UTF-8
Language: en
Country: US
--></g></svg>