<?xml version="1.0" encoding="UTF-8" standalone="no"?><svg xmlns="http://www.w3.org/2000/svg" xmlns:xlink="http://www.w3.org/1999/xlink" contentScriptType="application/ecmascript" contentStyleType="text/css" height="653px" preserveAspectRatio="none" style="width:599px;height:653px;" version="1.1" viewBox="0 0 599 653" width="599px" zoomAndPan="magnify"><defs><filter height="300%" id="fo94rrh1wqbul" width="300%" x="-1" y="-1"><feGaussianBlur result="blurOut" stdDeviation="2.0"/><feColorMatrix in="blurOut" result="blurOut2" type="matrix" values="0 0 0 0 0 0 0 0 0 0 0 0 0 0 0 0 0 0 .4 0"/><feOffset dx="4.0" dy="4.0" in="blurOut2" result="blurOut3"/><feBlend in="SourceGraphic" in2="blurOut3" mode="normal"/></filter></defs><g><!--cluster depending on fs--><rect fill="#FFFFFF" filter="url(#fo94rrh1wqbul)" height="303" style="stroke: #000000; stroke-width: 1.5;" width="183" x="206.96" y="24"/><text fill="#000000" font-family="sans-serif" font-size="14" font-weight="bold" lengthAdjust="spacingAndGlyphs" textLength="115" x="240.96" y="40.5332">depending on fs</text><rect fill="#FEFECE" filter="url(#fo94rrh1wqbul)" height="35.0938" style="stroke: #A80036; stroke-width: 1.5;" width="72" x="222.96" y="61.5"/><text fill="#000000" font-family="sans-serif" font-size="12" lengthAdjust="spacingAndGlyphs" textLength="58" x="229.96" y="75.957">CLIEngine</text><line style="stroke: #A80036; stroke-width: 1.5;" x1="223.96" x2="293.96" y1="80.5938" y2="80.5938"/><rect fill="#FEFECE" filter="url(#fo94rrh1wqbul)" height="35.0938" style="stroke: #A80036; stroke-width: 1.5;" width="50" x="323.96" y="159.5"/><text fill="#000000" font-family="sans-serif" font-size="12" lengthAdjust="spacingAndGlyphs" textLength="36" x="330.96" y="173.957">Config</text><line style="stroke: #A80036; stroke-width: 1.5;" x1="324.96" x2="372.96" y1="178.5938" y2="178.5938"/><rect fill="#FEFECE" filter="url(#fo94rrh1wqbul)" height="35.0938" style="stroke: #A80036; stroke-width: 1.5;" width="56" x="317.96" y="275.5"/><text fill="#000000" font-family="sans-serif" font-size="12" lengthAdjust="spacingAndGlyphs" textLength="42" x="324.96" y="289.957">Plugins</text><line style="stroke: #A80036; stroke-width: 1.5;" x1="318.96" x2="372.96" y1="294.5938" y2="294.5938"/><rect fill="#FEFECE" filter="url(#fo94rrh1wqbul)" height="35.0938" style="stroke: #A80036; stroke-width: 1.5;" width="65" x="223.71" y="159.5"/><text fill="#000000" font-family="sans-serif" font-size="12" lengthAdjust="spacingAndGlyphs" textLength="51" x="230.71" y="173.957">GlobUtils</text><line style="stroke: #A80036; stroke-width: 1.5;" x1="224.71" x2="287.71" y1="178.5938" y2="178.5938"/><rect fill="#FEFECE" filter="url(#fo94rrh1wqbul)" height="35.0938" style="stroke: #A80036; stroke-width: 1.5;" width="45" x="210.71" y="393.5"/><text fill="#000000" font-family="sans-serif" font-size="12" lengthAdjust="spacingAndGlyphs" textLength="31" x="217.71" y="407.957">Linter</text><line style="stroke: #A80036; stroke-width: 1.5;" x1="211.71" x2="254.71" y1="412.5938" y2="412.5938"/><rect fill="#FEFECE" filter="url(#fo94rrh1wqbul)" height="35.0938" style="stroke: #A80036; stroke-width: 1.5;" width="86" x="104.9603" y="275.5"/><text fill="#000000" font-family="sans-serif" font-size="12" lengthAdjust="spacingAndGlyphs" textLength="72" x="111.9603" y="289.957">ConfigCache</text><line style="stroke: #A80036; stroke-width: 1.5;" x1="105.9603" x2="189.9603" y1="294.5938" y2="294.5938"/><rect fill="#FEFECE" filter="url(#fo94rrh1wqbul)" height="35.0938" style="stroke: #A80036; stroke-width: 1.5;" width="90" x="498.96" y="509.5"/><text fill="#000000" font-family="sans-serif" font-size="12" lengthAdjust="spacingAndGlyphs" textLength="76" x="505.96" y="523.957">Environments</text><line style="stroke: #A80036; stroke-width: 1.5;" x1="499.96" x2="587.96" y1="528.5938" y2="528.5938"/><rect fill="#FEFECE" filter="url(#fo94rrh1wqbul)" height="35.0938" style="stroke: #A80036; stroke-width: 1.5;" width="47" x="297.71" y="509.5"/><text fill="#000000" font-family="sans-serif" font-size="12" lengthAdjust="spacingAndGlyphs" textLength="33" x="304.71" y="523.957">Rules</text><line style="stroke: #A80036; stroke-width: 1.5;" x1="298.71" x2="343.71" y1="528.5938" y2="528.5938"/><rect fill="#FEFECE" filter="url(#fo94rrh1wqbul)" height="35.0938" style="stroke: #A80036; stroke-width: 1.5;" width="83" x="21.7103" y="509.5"/><text fill="#000000" font-family="sans-serif" font-size="12" lengthAdjust="spacingAndGlyphs" textLength="69" x="28.7103" y="523.957">config object</text><line style="stroke: #A80036; stroke-width: 1.5;" x1="22.7103" x2="103.7103" y1="528.5938" y2="528.5938"/><rect fill="#FEFECE" filter="url(#fo94rrh1wqbul)" height="35.0938" style="stroke: #A80036; stroke-width: 1.5;" width="86" x="150.96" y="509.5"/><text fill="#000000" font-family="sans-serif" font-size="12" lengthAdjust="spacingAndGlyphs" textLength="72" x="157.96" y="523.957">parser object</text><line style="stroke: #A80036; stroke-width: 1.5;" x1="151.96" x2="235.96" y1="528.5938" y2="528.5938"/><rect fill="#FEFECE" filter="url(#fo94rrh1wqbul)" height="35.0938" style="stroke: #A80036; stroke-width: 1.5;" width="84" x="379.96" y="509.5"/><text fill="#000000" font-family="sans-serif" font-size="12" lengthAdjust="spacingAndGlyphs" textLength="70" x="386.96" y="523.957">plugin object</text><line style="stroke: #A80036; stroke-width: 1.5;" x1="380.96" x2="462.96" y1="528.5938" y2="528.5938"/><rect fill="#FEFECE" filter="url(#fo94rrh1wqbul)" height="35.0938" style="stroke: #A80036; stroke-width: 1.5;" width="69" x="464.71" y="607.5"/><text fill="#000000" font-family="sans-serif" font-size="12" lengthAdjust="spacingAndGlyphs" textLength="55" x="471.71" y="621.957">env object</text><line style="stroke: #A80036; stroke-width: 1.5;" x1="465.71" x2="532.71" y1="626.5938" y2="626.5938"/><rect fill="#FEFECE" filter="url(#fo94rrh1wqbul)" height="35.0938" style="stroke: #A80036; stroke-width: 1.5;" width="71" x="335.71" y="607.5"/><text fill="#000000" font-family="sans-serif" font-size="12" lengthAdjust="spacingAndGlyphs" textLength="57" x="342.71" y="621.957">rule object</text><line style="stroke: #A80036; stroke-width: 1.5;" x1="336.71" x2="405.71" y1="626.5938" y2="626.5938"/><!--link CLIEngine to Linter--><path d="M210.387,96.026 C155.951,116.696 69.6196,158.159 25.9603,225 C-3.0154,269.361 12.7478,290.15 8.9603,343 C8.325,351.866 3.3574,356.099 8.9603,363 C32.3308,391.783 140.658,403.578 197.664,407.857 " fill="none" id="CLIEngine-Linter" style="stroke: #A80036; stroke-width: 1.0;"/><polygon fill="#A80036" points="210.641,408.767,201.9431,404.1468,205.6533,408.417,201.3831,412.1271,210.641,408.767" style="stroke: #A80036; stroke-width: 1.0;"/><line style="stroke: #A80036; stroke-width: 1.0;" x1="205.6533" x2="197.6735" y1="408.417" y2="407.8575"/><polygon fill="#A80036" points="222.826,91.453,215.8143,89.769,211.563,95.5937,218.5747,97.2777,222.826,91.453" style="stroke: #A80036; stroke-width: 1.0;"/><text fill="#000000" font-family="sans-serif" font-size="13" lengthAdjust="spacingAndGlyphs" textLength="7" x="195.7046" y="402.4167">1</text><!--link CLIEngine to Config--><path d="M283.887,106.588 C296.541,120.086 311.858,136.424 324.452,149.858 " fill="none" id="CLIEngine-Config" style="stroke: #A80036; stroke-width: 1.0;"/><polygon fill="#A80036" points="333.463,159.47,330.225,150.1686,330.043,155.8226,324.3891,155.6406,333.463,159.47" style="stroke: #A80036; stroke-width: 1.0;"/><line style="stroke: #A80036; stroke-width: 1.0;" x1="330.043" x2="324.572" y1="155.8226" y2="149.986"/><polygon fill="#A80036" points="274.637,96.722,275.8225,103.835,282.8442,105.4765,281.6588,98.3635,274.637,96.722" style="stroke: #A80036; stroke-width: 1.0;"/><text fill="#000000" font-family="sans-serif" font-size="13" lengthAdjust="spacingAndGlyphs" textLength="7" x="319.8388" y="148.5398">1</text><!--link CLIEngine to GlobUtils--><path d="M258.023,109.999 C257.66,121.605 257.246,134.853 256.885,146.419 " fill="none" id="CLIEngine-GlobUtils" style="stroke: #A80036; stroke-width: 1.0;"/><polygon fill="#A80036" points="256.477,159.47,260.7559,150.5992,256.633,154.4724,252.7598,150.3496,256.477,159.47" style="stroke: #A80036; stroke-width: 1.0;"/><line style="stroke: #A80036; stroke-width: 1.0;" x1="256.633" x2="256.883" y1="154.4724" y2="146.476"/><polygon fill="#A80036" points="258.438,96.722,254.252,102.5938,258.0622,108.7161,262.2481,102.8443,258.438,96.722" style="stroke: #A80036; stroke-width: 1.0;"/><text fill="#000000" font-family="sans-serif" font-size="13" lengthAdjust="spacingAndGlyphs" textLength="7" x="247.2865" y="148.5398">1</text><!--link Config to Linter--><path d="M340.426,194.804 C330.621,214.132 314.067,246.827 299.96,275 C279.889,315.086 256.672,361.986 243.512,388.623 " fill="none" id="Config-Linter" style="stroke: #A80036; stroke-width: 1.0;"/><polygon fill="#A80036" points="241.174,393.355,248.7461,387.0572,243.3883,388.8721,241.5734,383.5142,241.174,393.355" style="stroke: #A80036; stroke-width: 1.0;"/><text fill="#000000" font-family="sans-serif" font-size="13" lengthAdjust="spacingAndGlyphs" textLength="7" x="234.105" y="382.7239">1</text><!--link Config to ConfigCache--><path d="M311.358,192.943 C309.204,193.669 307.061,194.361 304.96,195 C246.987,212.634 217.343,184.846 171.96,225 C161.178,234.54 155.239,249.277 151.968,262.502 " fill="none" id="Config-ConfigCache" style="stroke: #A80036; stroke-width: 1.0;"/><polygon fill="#A80036" points="149.434,275.457,155.0874,267.3923,150.3939,270.55,147.2362,265.8565,149.434,275.457" style="stroke: #A80036; stroke-width: 1.0;"/><line style="stroke: #A80036; stroke-width: 1.0;" x1="150.3939" x2="151.9295" y1="270.55" y2="262.6985"/><polygon fill="#A80036" points="323.589,188.531,316.5877,186.8044,312.301,192.6031,319.3024,194.3297,323.589,188.531" style="stroke: #A80036; stroke-width: 1.0;"/><text fill="#000000" font-family="sans-serif" font-size="13" lengthAdjust="spacingAndGlyphs" textLength="43" x="172.96" y="239.9951">register</text><text fill="#000000" font-family="sans-serif" font-size="13" lengthAdjust="spacingAndGlyphs" textLength="7" x="140.5829" y="264.5232">1</text><!--link Config to Plugins--><path d="M348.175,207.851 C347.733,224.636 347.184,245.52 346.742,262.283 " fill="none" id="Config-Plugins" style="stroke: #A80036; stroke-width: 1.0;"/><polygon fill="#A80036" points="346.395,275.481,350.631,266.5896,346.5269,270.4827,342.6337,266.3786,346.395,275.481" style="stroke: #A80036; stroke-width: 1.0;"/><line style="stroke: #A80036; stroke-width: 1.0;" x1="346.5269" x2="346.7375" y1="270.4827" y2="262.485"/><polygon fill="#A80036" points="348.518,194.821,344.3618,200.7139,348.2028,206.8169,352.359,200.924,348.518,194.821" style="stroke: #A80036; stroke-width: 1.0;"/><text fill="#000000" font-family="sans-serif" font-size="13" lengthAdjust="spacingAndGlyphs" textLength="21" x="348.96" y="239.9951">use</text><text fill="#000000" font-family="sans-serif" font-size="13" lengthAdjust="spacingAndGlyphs" textLength="7" x="337.2517" y="264.5539">1</text><!--link Config to ConfigData--><path d="M323.628,188.662 C317.581,190.962 311.098,193.231 304.96,195 C205.788,223.576 136.573,184.5 86.9603,275 C45.423,350.77 53.6726,458.923 59.6269,504.471 " fill="none" id="Config-ConfigData" style="stroke: #A80036; stroke-width: 1.0; stroke-dasharray: 7.0,7.0;"/><polygon fill="#A80036" points="60.3022,509.453,63.0547,499.9966,59.6294,504.4985,55.1275,501.0731,60.3022,509.453" style="stroke: #A80036; stroke-width: 1.0;"/><text fill="#000000" font-family="sans-serif" font-size="13" lengthAdjust="spacingAndGlyphs" textLength="24" x="63.9603" y="357.9951">load</text><!--link Config to Environments--><path d="M368.306,194.648 C405.655,228.03 487.32,307.322 524.96,393 C541.056,429.637 544.111,476.901 544.376,504.095 " fill="none" id="Config-Environments" style="stroke: #A80036; stroke-width: 1.0; stroke-dasharray: 7.0,7.0;"/><polygon fill="#A80036" points="544.395,509.257,548.3615,500.2422,544.3764,504.257,540.3616,500.2719,544.395,509.257" style="stroke: #A80036; stroke-width: 1.0;"/><text fill="#000000" font-family="sans-serif" font-size="13" lengthAdjust="spacingAndGlyphs" textLength="21" x="509.96" y="357.9951">use</text><!--link Plugins to Environments--><path d="M366.359,310.643 C377.085,319.765 390.202,331.525 400.96,343 C452.293,397.753 504.58,469.635 529.294,504.788 " fill="none" id="Plugins-Environments" style="stroke: #A80036; stroke-width: 1.0;"/><polygon fill="#A80036" points="532.454,509.296,530.5634,499.6303,529.584,505.2017,524.0126,504.2223,532.454,509.296" style="stroke: #A80036; stroke-width: 1.0;"/><text fill="#000000" font-family="sans-serif" font-size="13" lengthAdjust="spacingAndGlyphs" textLength="43" x="471.96" y="415.9951">register</text><text fill="#000000" font-family="sans-serif" font-size="13" lengthAdjust="spacingAndGlyphs" textLength="7" x="520.1524" y="498.6491">1</text><!--link Plugins to Linter--><path d="M329.77,310.62 C309.464,331.466 274.662,367.191 252.783,389.651 " fill="none" id="Plugins-Linter" style="stroke: #A80036; stroke-width: 1.0;"/><polygon fill="#A80036" points="249.12,393.411,258.2652,389.755,252.6088,389.8293,252.5345,384.173,249.12,393.411" style="stroke: #A80036; stroke-width: 1.0;"/><text fill="#000000" font-family="sans-serif" font-size="13" lengthAdjust="spacingAndGlyphs" textLength="7" x="254.3364" y="382.795">1</text><!--link Plugins to Rules--><path d="M344.162,310.685 C339.721,351.902 328.233,458.513 323.284,504.435 " fill="none" id="Plugins-Rules" style="stroke: #A80036; stroke-width: 1.0; stroke-dasharray: 7.0,7.0;"/><polygon fill="#A80036" points="322.742,509.466,327.6832,500.9464,323.2777,504.4948,319.7293,500.0892,322.742,509.466" style="stroke: #A80036; stroke-width: 1.0;"/><text fill="#000000" font-family="sans-serif" font-size="13" lengthAdjust="spacingAndGlyphs" textLength="43" x="336.96" y="415.9951">register</text><!--link Plugins to Plugin--><path d="M360.278,322.474 C369.662,341.965 381.68,368.6 389.96,393 C401.789,427.855 411.024,469.254 416.47,496.498 " fill="none" id="Plugins-Plugin" style="stroke: #A80036; stroke-width: 1.0;"/><polygon fill="#A80036" points="418.967,509.346,421.1766,499.7482,418.0132,504.4378,413.3236,501.2743,418.967,509.346" style="stroke: #A80036; stroke-width: 1.0;"/><line style="stroke: #A80036; stroke-width: 1.0;" x1="418.0132" x2="416.4865" y1="504.4378" y2="496.584"/><polygon fill="#A80036" points="354.557,310.792,353.6032,317.9397,359.8342,321.5693,360.7881,314.4216,354.557,310.792" style="stroke: #A80036; stroke-width: 1.0;"/><text fill="#000000" font-family="sans-serif" font-size="13" lengthAdjust="spacingAndGlyphs" textLength="24" x="401.96" y="415.9951">load</text><text fill="#000000" font-family="sans-serif" font-size="13" lengthAdjust="spacingAndGlyphs" textLength="20" x="394.2064" y="498.7125">0..*</text><!--link Linter to Parser--><path d="M203.632,438.265 C198.452,444.502 193.81,451.534 190.96,459 C186.484,470.728 186.31,484.461 187.608,496.43 " fill="none" id="Linter-Parser" style="stroke: #A80036; stroke-width: 1.0;"/><polygon fill="#A80036" points="189.64,509.444,192.2046,499.9349,188.8691,504.5038,184.3002,501.1683,189.64,509.444" style="stroke: #A80036; stroke-width: 1.0;"/><line style="stroke: #A80036; stroke-width: 1.0;" x1="188.8691" x2="187.6345" y1="504.5038" y2="496.5995"/><polygon fill="#A80036" points="212.635,428.582,205.62,430.2524,204.4639,437.3703,211.4789,435.6998,212.635,428.582" style="stroke: #A80036; stroke-width: 1.0;"/><text fill="#000000" font-family="sans-serif" font-size="13" lengthAdjust="spacingAndGlyphs" textLength="24" x="191.96" y="473.9951">load</text><text fill="#000000" font-family="sans-serif" font-size="13" lengthAdjust="spacingAndGlyphs" textLength="5" x="181.4406" y="498.5065">*</text><!--link Linter to Rules--><path d="M244.069,440.841 C249.609,453.258 257.043,467.526 265.96,479 C272.107,486.909 279.762,494.452 287.388,501.088 " fill="none" id="Linter-Rules" style="stroke: #A80036; stroke-width: 1.0;"/><polygon fill="#A80036" points="297.626,509.527,293.2247,500.7163,293.7675,506.347,288.1368,506.8899,297.626,509.527" style="stroke: #A80036; stroke-width: 1.0;"/><line style="stroke: #A80036; stroke-width: 1.0;" x1="293.7675" x2="287.594" y1="506.347" y2="501.2585"/><polygon fill="#A80036" points="238.997,428.766,237.6319,435.8467,243.6429,439.8302,245.008,432.7494,238.997,428.766" style="stroke: #A80036; stroke-width: 1.0;"/><text fill="#000000" font-family="sans-serif" font-size="13" lengthAdjust="spacingAndGlyphs" textLength="7" x="282.7805" y="499.6007">1</text><!--link Linter to Environments--><path d="M267.818,424.777 C320.87,444.224 422.462,481.464 486.529,504.948 " fill="none" id="Linter-Environments" style="stroke: #A80036; stroke-width: 1.0;"/><polygon fill="#A80036" points="498.816,509.452,491.7426,502.5988,494.1215,507.7311,488.9891,510.11,498.816,509.452" style="stroke: #A80036; stroke-width: 1.0;"/><line style="stroke: #A80036; stroke-width: 1.0;" x1="494.1215" x2="486.61" y1="507.7311" y2="504.978"/><polygon fill="#A80036" points="255.327,420.199,259.5843,426.0192,266.5943,424.328,262.337,418.5077,255.327,420.199" style="stroke: #A80036; stroke-width: 1.0;"/><text fill="#000000" font-family="sans-serif" font-size="13" lengthAdjust="spacingAndGlyphs" textLength="7" x="483.8348" y="502.2319">1</text><!--link Linter to ConfigData--><path d="M210.439,425.131 C194.934,434.321 173.965,447.044 155.96,459 C132.996,474.248 107.654,492.612 89.2314,506.255 " fill="none" id="Linter-ConfigData" style="stroke: #A80036; stroke-width: 1.0; stroke-dasharray: 7.0,7.0;"/><polygon fill="#A80036" points="85.1742,509.266,94.7853,507.1151,89.1895,506.2865,90.0181,500.6906,85.1742,509.266" style="stroke: #A80036; stroke-width: 1.0;"/><text fill="#000000" font-family="sans-serif" font-size="13" lengthAdjust="spacingAndGlyphs" textLength="21" x="156.96" y="473.9951">use</text><!--link Environments to Environment--><path d="M536.122,544.7219 C528.572,560.8279 517.122,585.2554 508.928,602.7361 " fill="none" id="Environments-Environment" style="stroke: #A80036; stroke-width: 1.0;"/><polygon fill="#A80036" points="506.709,607.4697,514.151,601.0186,508.8313,602.9425,506.9074,597.6228,506.709,607.4697" style="stroke: #A80036; stroke-width: 1.0;"/><text fill="#000000" font-family="sans-serif" font-size="13" lengthAdjust="spacingAndGlyphs" textLength="20" x="484.7243" y="596.5394">0..*</text><!--link Rules to Rule--><path d="M329.67,544.7219 C338.058,560.8279 350.781,585.2554 359.885,602.7361 " fill="none" id="Rules-Rule" style="stroke: #A80036; stroke-width: 1.0;"/><polygon fill="#A80036" points="362.351,607.4697,361.7409,597.6398,360.0412,603.0352,354.6457,601.3355,362.351,607.4697" style="stroke: #A80036; stroke-width: 1.0;"/><text fill="#000000" font-family="sans-serif" font-size="13" lengthAdjust="spacingAndGlyphs" textLength="20" x="335.7657" y="596.5394">0..*</text><!--link Plugin to Rule--><path d="M406.807,556.5245 C400.189,568.9805 392.453,583.5436 385.864,595.9459 " fill="none" id="Plugin-Rule" style="stroke: #A80036; stroke-width: 1.0;"/><polygon fill="#A80036" points="379.742,607.4697,387.497,601.3985,382.0879,603.0542,380.4322,597.6451,379.742,607.4697" style="stroke: #A80036; stroke-width: 1.0;"/><line style="stroke: #A80036; stroke-width: 1.0;" x1="382.0879" x2="385.841" y1="603.0542" y2="595.9892"/><polygon fill="#A80036" points="413.077,544.7219,406.7295,548.1439,407.447,555.3192,413.7944,551.8972,413.077,544.7219" style="stroke: #A80036; stroke-width: 1.0;"/><text fill="#000000" font-family="sans-serif" font-size="13" lengthAdjust="spacingAndGlyphs" textLength="20" x="384.9541" y="596.5394">0..*</text><!--link Plugin to Environment--><path d="M443.672,555.069 C454.237,568.2415 466.9,584.0291 477.44,597.1697 " fill="none" id="Plugin-Environment" style="stroke: #A80036; stroke-width: 1.0;"/><polygon fill="#A80036" points="485.702,607.4697,483.1913,597.9462,482.5736,603.5693,476.9506,602.9516,485.702,607.4697" style="stroke: #A80036; stroke-width: 1.0;"/><line style="stroke: #A80036; stroke-width: 1.0;" x1="482.5736" x2="477.5675" y1="603.5693" y2="597.3287"/><polygon fill="#A80036" points="435.373,544.7219,436.0067,551.9051,442.8811,554.0829,442.2474,546.8997,435.373,544.7219" style="stroke: #A80036; stroke-width: 1.0;"/><text fill="#000000" font-family="sans-serif" font-size="13" lengthAdjust="spacingAndGlyphs" textLength="20" x="457.8091" y="596.5394">0..*</text><!--
@startuml current-deps
rectangle "depending on fs" {
  object CLIEngine
  object Config
  object Plugins
  object GlobUtils
}
object Linter
object ConfigCache
object Environments
object Rules
object "config object" as ConfigData
object "parser object" as Parser
object "plugin object" as Plugin
object "env object" as Environment
object "rule object" as Rule

CLIEngine *- ->"1" Linter
CLIEngine *- ->"1" Config
CLIEngine *- ->"1" GlobUtils
Config - ->"1" Linter
Config *- ->"1" ConfigCache : "register"
Config *- ->"1" Plugins : "use"
Config ..> ConfigData : "load"
Config ..> Environments : "use"
Plugins - ->"1" Environments : "register"
Plugins - ->"1" Linter
Plugins ..> Rules : "register"
Plugins *- ->"0..*" Plugin : "load"
Linter *- ->"*" Parser : "load"
Linter *- ->"1" Rules
Linter *- ->"1" Environments
Linter ..> ConfigData : "use"
Environments - ->"0..*" Environment
Rules - ->"0..*" Rule
Plugin *- ->"0..*" Rule
Plugin *- ->"0..*" Environment
@enduml

PlantUML version 1.2018.12(Sun Oct 21 19:15:15 JST 2018)
(GPL source distribution)
Java Runtime: Java(TM) SE Runtime Environment
JVM: Java HotSpot(TM) 64-Bit Server VM
Java Version: 1.8.0_181-b13
Operating System: Windows 7
OS Version: 6.1
Default Encoding: MS932
Language: ja
Country: JP
--></g></svg>