<?xml version="1.0" encoding="UTF-8" standalone="no"?><svg xmlns="http://www.w3.org/2000/svg" xmlns:xlink="http://www.w3.org/1999/xlink" contentScriptType="application/ecmascript" contentStyleType="text/css" height="733px" preserveAspectRatio="none" style="width:354px;height:733px;" version="1.1" viewBox="0 0 354 733" width="354px" zoomAndPan="magnify"><defs><filter height="300%" id="f2lgw0swhx88j" width="300%" x="-1" y="-1"><feGaussianBlur result="blurOut" stdDeviation="2.0"/><feColorMatrix in="blurOut" result="blurOut2" type="matrix" values="0 0 0 0 0 0 0 0 0 0 0 0 0 0 0 0 0 0 .4 0"/><feOffset dx="4.0" dy="4.0" in="blurOut2" result="blurOut3"/><feBlend in="SourceGraphic" in2="blurOut3" mode="normal"/></filter></defs><g><!--cluster depending on fs--><rect fill="#FFFFFF" filter="url(#f2lgw0swhx88j)" height="285" style="stroke: #000000; stroke-width: 1.5;" width="148" x="70.25" y="24"/><text fill="#000000" font-family="sans-serif" font-size="14" font-weight="bold" lengthAdjust="spacingAndGlyphs" textLength="115" x="86.75" y="40.5332">depending on fs</text><rect fill="#FEFECE" filter="url(#f2lgw0swhx88j)" height="35.0938" style="stroke: #A80036; stroke-width: 1.5;" width="72" x="93.25" y="61.5"/><text fill="#000000" font-family="sans-serif" font-size="12" lengthAdjust="spacingAndGlyphs" textLength="58" x="100.25" y="75.957">CLIEngine</text><line style="stroke: #A80036; stroke-width: 1.5;" x1="94.25" x2="164.25" y1="80.5938" y2="80.5938"/><rect fill="#FEFECE" filter="url(#f2lgw0swhx88j)" height="35.0938" style="stroke: #A80036; stroke-width: 1.5;" width="99" x="89" y="159.5"/><text fill="#000000" font-family="sans-serif" font-size="12" lengthAdjust="spacingAndGlyphs" textLength="85" x="96" y="173.957">FileEnumerator</text><line style="stroke: #A80036; stroke-width: 1.5;" x1="90" x2="187" y1="178.5938" y2="178.5938"/><rect fill="#FEFECE" filter="url(#f2lgw0swhx88j)" height="35.0938" style="stroke: #A80036; stroke-width: 1.5;" width="116" x="86.25" y="257.5"/><text fill="#000000" font-family="sans-serif" font-size="12" lengthAdjust="spacingAndGlyphs" textLength="102" x="93.25" y="271.957">ConfigArrayFactory</text><line style="stroke: #A80036; stroke-width: 1.5;" x1="87.25" x2="201.25" y1="276.5938" y2="276.5938"/><rect fill="#FEFECE" filter="url(#f2lgw0swhx88j)" height="35.0938" style="stroke: #A80036; stroke-width: 1.5;" width="45" x="6" y="159.5"/><text fill="#000000" font-family="sans-serif" font-size="12" lengthAdjust="spacingAndGlyphs" textLength="31" x="13" y="173.957">Linter</text><line style="stroke: #A80036; stroke-width: 1.5;" x1="7" x2="50" y1="178.5938" y2="178.5938"/><rect fill="#FEFECE" filter="url(#f2lgw0swhx88j)" height="35.0938" style="stroke: #A80036; stroke-width: 1.5;" width="77" x="118" y="375.5"/><text fill="#000000" font-family="sans-serif" font-size="12" lengthAdjust="spacingAndGlyphs" textLength="63" x="125" y="389.957">ConfigArray</text><line style="stroke: #A80036; stroke-width: 1.5;" x1="119" x2="194" y1="394.5938" y2="394.5938"/><rect fill="#FEFECE" filter="url(#f2lgw0swhx88j)" height="35.0938" style="stroke: #A80036; stroke-width: 1.5;" width="123" x="118" y="491.5"/><text fill="#000000" font-family="sans-serif" font-size="12" lengthAdjust="spacingAndGlyphs" textLength="109" x="125" y="505.957">ConfigArrayElement</text><line style="stroke: #A80036; stroke-width: 1.5;" x1="119" x2="240" y1="510.5938" y2="510.5938"/><rect fill="#FEFECE" filter="url(#f2lgw0swhx88j)" height="35.0938" style="stroke: #A80036; stroke-width: 1.5;" width="86" x="51.25" y="589.5"/><text fill="#000000" font-family="sans-serif" font-size="12" lengthAdjust="spacingAndGlyphs" textLength="72" x="58.25" y="603.957">parser object</text><line style="stroke: #A80036; stroke-width: 1.5;" x1="52.25" x2="136.25" y1="608.5938" y2="608.5938"/><rect fill="#FEFECE" filter="url(#f2lgw0swhx88j)" height="35.0938" style="stroke: #A80036; stroke-width: 1.5;" width="84" x="212.25" y="589.5"/><text fill="#000000" font-family="sans-serif" font-size="12" lengthAdjust="spacingAndGlyphs" textLength="70" x="219.25" y="603.957">plugin object</text><line style="stroke: #A80036; stroke-width: 1.5;" x1="213.25" x2="295.25" y1="608.5938" y2="608.5938"/><rect fill="#FEFECE" filter="url(#f2lgw0swhx88j)" height="35.0938" style="stroke: #A80036; stroke-width: 1.5;" width="69" x="168" y="687.5"/><text fill="#000000" font-family="sans-serif" font-size="12" lengthAdjust="spacingAndGlyphs" textLength="55" x="175" y="701.957">env object</text><line style="stroke: #A80036; stroke-width: 1.5;" x1="169" x2="236" y1="706.5938" y2="706.5938"/><rect fill="#FEFECE" filter="url(#f2lgw0swhx88j)" height="35.0938" style="stroke: #A80036; stroke-width: 1.5;" width="71" x="272" y="687.5"/><text fill="#000000" font-family="sans-serif" font-size="12" lengthAdjust="spacingAndGlyphs" textLength="57" x="279" y="701.957">rule object</text><line style="stroke: #A80036; stroke-width: 1.5;" x1="273" x2="342" y1="706.5938" y2="706.5938"/><!--link CLIEngine to Linter--><path d="M102.0303,105.872 C87.4584,119.723 69.5758,136.72 55.0657,150.512 " fill="none" id="CLIEngine-Linter" style="stroke: #A80036; stroke-width: 1.0;"/><polygon fill="#A80036" points="45.6413,159.47,54.9202,156.1683,49.2652,156.0251,49.4084,150.37,45.6413,159.47" style="stroke: #A80036; stroke-width: 1.0;"/><line style="stroke: #A80036; stroke-width: 1.0;" x1="49.2652" x2="55.064" y1="156.0251" y2="150.5135"/><polygon fill="#A80036" points="111.657,96.722,104.5523,97.9563,102.959,104.9891,110.0637,103.7549,111.657,96.722" style="stroke: #A80036; stroke-width: 1.0;"/><text fill="#000000" font-family="sans-serif" font-size="13" lengthAdjust="spacingAndGlyphs" textLength="7" x="41.1967" y="148.5398">1</text><!--link CLIEngine to FileEnumerator--><path d="M132.062,109.999 C133.151,121.605 134.392,134.853 135.477,146.419 " fill="none" id="CLIEngine-FileEnumerator" style="stroke: #A80036; stroke-width: 1.0;"/><polygon fill="#A80036" points="136.7,159.47,139.8429,150.1361,136.2335,154.4918,131.8777,150.8825,136.7,159.47" style="stroke: #A80036; stroke-width: 1.0;"/><line style="stroke: #A80036; stroke-width: 1.0;" x1="136.2335" x2="135.487" y1="154.4918" y2="146.5265"/><polygon fill="#A80036" points="130.818,96.722,127.3959,103.0694,131.9389,108.6695,135.361,102.3221,130.818,96.722" style="stroke: #A80036; stroke-width: 1.0;"/><text fill="#000000" font-family="sans-serif" font-size="13" lengthAdjust="spacingAndGlyphs" textLength="7" x="126.9281" y="148.5398">1</text><!--link Linter to ConfigArray--><path d="M30.2467,194.66 C34.1648,222.083 44.8078,277.613 70.25,317 C84.6405,339.278 107.499,358.766 126.033,372.29 " fill="none" id="Linter-ConfigArray" style="stroke: #A80036; stroke-width: 1.0; stroke-dasharray: 7.0,7.0;"/><polygon fill="#A80036" points="130.159,375.255,125.186,366.7539,126.0991,372.3365,120.5165,373.2496,130.159,375.255" style="stroke: #A80036; stroke-width: 1.0;"/><!--link FileEnumerator to ConfigArrayFactory--><path d="M140.125,207.999 C140.85,219.605 141.678,232.853 142.401,244.419 " fill="none" id="FileEnumerator-ConfigArrayFactory" style="stroke: #A80036; stroke-width: 1.0;"/><polygon fill="#A80036" points="143.217,257.47,146.6474,248.2379,142.9049,252.4797,138.663,248.7372,143.217,257.47" style="stroke: #A80036; stroke-width: 1.0;"/><line style="stroke: #A80036; stroke-width: 1.0;" x1="142.9049" x2="142.406" y1="252.4797" y2="244.495"/><polygon fill="#A80036" points="139.295,194.722,135.6766,200.9596,140.0427,206.6987,143.6611,200.4611,139.295,194.722" style="stroke: #A80036; stroke-width: 1.0;"/><text fill="#000000" font-family="sans-serif" font-size="13" lengthAdjust="spacingAndGlyphs" textLength="7" x="133.6608" y="246.5398">1</text><!--link ConfigArrayFactory to ConfigArray--><path d="M145.969,292.62 C148.081,313.035 151.669,347.722 153.999,370.243 " fill="none" id="ConfigArrayFactory-ConfigArray" style="stroke: #A80036; stroke-width: 1.0; stroke-dasharray: 7.0,7.0;"/><polygon fill="#A80036" points="154.534,375.411,157.5843,366.0464,154.0182,370.4377,149.627,366.8716,154.534,375.411" style="stroke: #A80036; stroke-width: 1.0;"/><text fill="#000000" font-family="sans-serif" font-size="13" lengthAdjust="spacingAndGlyphs" textLength="24" x="153.25" y="339.9951">load</text><!--link ConfigArrayFactory to Parser--><path d="M134.309,292.812 C123.586,311.959 107.127,344.545 100.25,375 C83.2163,450.43 88.4321,543.232 92.0488,584.482 " fill="none" id="ConfigArrayFactory-Parser" style="stroke: #A80036; stroke-width: 1.0; stroke-dasharray: 7.0,7.0;"/><polygon fill="#A80036" points="92.5022,589.486,95.6733,580.1616,92.0508,584.5064,87.706,580.8839,92.5022,589.486" style="stroke: #A80036; stroke-width: 1.0;"/><text fill="#000000" font-family="sans-serif" font-size="13" lengthAdjust="spacingAndGlyphs" textLength="24" x="92.25" y="455.9951">load</text><!--link ConfigArrayFactory to Plugin--><path d="M161.004,292.752 C169.515,301.811 179.638,313.48 187.25,325 C211.028,360.986 257.296,486.105 258.25,491 C264.503,523.084 261.129,561.135 257.879,584.418 " fill="none" id="ConfigArrayFactory-Plugin" style="stroke: #A80036; stroke-width: 1.0; stroke-dasharray: 7.0,7.0;"/><polygon fill="#A80036" points="257.148,589.438,262.4048,581.1094,257.8695,584.4903,254.4886,579.955,257.148,589.438" style="stroke: #A80036; stroke-width: 1.0;"/><text fill="#000000" font-family="sans-serif" font-size="13" lengthAdjust="spacingAndGlyphs" textLength="24" x="247.25" y="455.9951">load</text><!--link ConfigArray to ConfigArrayElement--><path d="M162.273,423.851 C165.676,440.72 169.915,461.73 173.305,478.535 " fill="none" id="ConfigArray-ConfigArrayElement" style="stroke: #A80036; stroke-width: 1.0;"/><polygon fill="#A80036" points="175.917,491.481,178.0577,481.8676,174.928,486.5798,170.2158,483.4501,175.917,491.481" style="stroke: #A80036; stroke-width: 1.0;"/><line style="stroke: #A80036; stroke-width: 1.0;" x1="174.928" x2="173.346" y1="486.5798" y2="478.737"/><polygon fill="#A80036" points="159.644,410.821,156.9099,417.4937,162.0177,422.5839,164.7518,415.9112,159.644,410.821" style="stroke: #A80036; stroke-width: 1.0;"/><text fill="#000000" font-family="sans-serif" font-size="13" lengthAdjust="spacingAndGlyphs" textLength="20" x="150.8155" y="480.5539">0..*</text><!--link ConfigArrayElement to Parser--><path d="M155.708,536.588 C143.874,549.954 129.574,566.104 117.747,579.462 " fill="none" id="ConfigArrayElement-Parser" style="stroke: #A80036; stroke-width: 1.0;"/><polygon fill="#A80036" points="108.886,589.47,117.8469,585.3832,112.2005,585.7264,111.8572,580.08,108.886,589.47" style="stroke: #A80036; stroke-width: 1.0;"/><line style="stroke: #A80036; stroke-width: 1.0;" x1="112.2005" x2="117.504" y1="585.7264" y2="579.7365"/><polygon fill="#FFFFFF" points="164.444,526.722,157.4718,528.5627,156.4893,535.7066,163.4615,533.8659,164.444,526.722" style="stroke: #A80036; stroke-width: 1.0;"/><text fill="#000000" font-family="sans-serif" font-size="13" lengthAdjust="spacingAndGlyphs" textLength="22" x="86.6276" y="578.5398">0..1</text><!--link ConfigArrayElement to Plugin--><path d="M200.398,537.069 C210.689,550.241 223.023,566.029 233.289,579.17 " fill="none" id="ConfigArrayElement-Plugin" style="stroke: #A80036; stroke-width: 1.0;"/><polygon fill="#A80036" points="241.336,589.47,238.9468,579.9153,238.2576,585.5301,232.6428,584.8409,241.336,589.47" style="stroke: #A80036; stroke-width: 1.0;"/><line style="stroke: #A80036; stroke-width: 1.0;" x1="238.2576" x2="233.3325" y1="585.5301" y2="579.2255"/><polygon fill="#FFFFFF" points="192.314,526.722,192.8556,533.9127,199.7014,536.1785,199.1599,528.9878,192.314,526.722" style="stroke: #A80036; stroke-width: 1.0;"/><text fill="#000000" font-family="sans-serif" font-size="13" lengthAdjust="spacingAndGlyphs" textLength="20" x="213.6102" y="578.5398">0..*</text><!--link Plugin to Rule--><path d="M269.998,636.5245 C276.875,648.9805 284.915,663.5436 291.762,675.9459 " fill="none" id="Plugin-Rule" style="stroke: #A80036; stroke-width: 1.0;"/><polygon fill="#A80036" points="298.124,687.4697,297.2761,677.6574,295.7075,683.0924,290.2725,681.5238,298.124,687.4697" style="stroke: #A80036; stroke-width: 1.0;"/><line style="stroke: #A80036; stroke-width: 1.0;" x1="295.7075" x2="291.8405" y1="683.0924" y2="676.0889"/><polygon fill="#A80036" points="263.482,624.7219,262.8803,631.9079,269.2821,635.2271,269.8838,628.0411,263.482,624.7219" style="stroke: #A80036; stroke-width: 1.0;"/><text fill="#000000" font-family="sans-serif" font-size="13" lengthAdjust="spacingAndGlyphs" textLength="20" x="271.3933" y="676.5394">0..*</text><!--link Plugin to Environment--><path d="M238.799,636.5245 C232.052,648.9805 224.164,663.5436 217.446,675.9459 " fill="none" id="Plugin-Environment" style="stroke: #A80036; stroke-width: 1.0;"/><polygon fill="#A80036" points="211.204,687.4697,219.0079,681.4614,213.5856,683.0733,211.9737,677.651,211.204,687.4697" style="stroke: #A80036; stroke-width: 1.0;"/><line style="stroke: #A80036; stroke-width: 1.0;" x1="213.5856" x2="217.3955" y1="683.0733" y2="676.0389"/><polygon fill="#A80036" points="245.192,624.7219,238.817,628.0923,239.4763,635.2732,245.8512,631.9028,245.192,624.7219" style="stroke: #A80036; stroke-width: 1.0;"/><text fill="#000000" font-family="sans-serif" font-size="13" lengthAdjust="spacingAndGlyphs" textLength="20" x="189.5583" y="676.5394">0..*</text><!--
@startuml new-deps
rectangle "depending on fs" {
  object CLIEngine
  object FileEnumerator
  object ConfigArrayFactory
}
object Linter
object ConfigArray
object ConfigArrayElement
object "parser object" as Parser
object "plugin object" as Plugin
object "env object" as Environment
object "rule object" as Rule

CLIEngine *- ->"1" Linter
CLIEngine *- ->"1" FileEnumerator
Linter ..> ConfigArray
FileEnumerator *- ->"1" ConfigArrayFactory
ConfigArrayFactory ..> ConfigArray : "load"
ConfigArrayFactory ..> Parser : "load"
ConfigArrayFactory ..> Plugin : "load"
ConfigArray *- ->"0..*" ConfigArrayElement
ConfigArrayElement o- ->"0..1" Parser
ConfigArrayElement o- ->"0..*" Plugin
Plugin *- ->"0..*" Rule
Plugin *- ->"0..*" Environment
@enduml

PlantUML version 1.2018.12(Sun Oct 21 19:15:15 JST 2018)
(GPL source distribution)
Java Runtime: Java(TM) SE Runtime Environment
JVM: Java HotSpot(TM) 64-Bit Server VM
Java Version: 1.8.0_181-b13
Operating System: Windows 7
OS Version: 6.1
Default Encoding: MS932
Language: ja
Country: JP
--></g></svg>